<?xml version="1.0" encoding="UTF-8" standalone="no"?>
<!DOCTYPE svg PUBLIC "-//W3C//DTD SVG 1.1//EN" "http://www.w3.org/Graphics/SVG/1.1/DTD/svg11.dtd">
<svg width="100%" height="100%" viewBox="0 0 512 512" version="1.1" xmlns="http://www.w3.org/2000/svg" xmlns:xlink="http://www.w3.org/1999/xlink" xml:space="preserve" xmlns:serif="http://www.serif.com/" style="fill-rule:evenodd;clip-rule:evenodd;stroke-linejoin:round;stroke-miterlimit:2;">
    <g transform="matrix(2.97514,0,0,3.0304,-161.311,-283.739)">
        <rect x="54.22" y="93.631" width="172.093" height="168.954" style="fill:rgb(255,101,169);"/>
    </g>
    <g transform="matrix(0.782486,0,0,0.782486,55.6835,55.6835)">
        <g transform="matrix(0.898454,0,0,0.898454,25.9619,25.9935)">
            <path d="M498,74.17C507.007,83.169 512.073,95.393 512.073,108.125C512.073,120.857 507.007,133.081 498,142.08L441.4,198.63L313.4,70.63L369.95,14.08C378.949,5.073 391.173,0.007 403.905,0.007C416.637,0.007 428.861,5.073 437.86,14.08L498,74.17Z" style="fill:white;fill-opacity:0.4;fill-rule:nonzero;"/>
        </g>
        <g transform="matrix(0.898454,0,0,0.898454,25.9619,25.9935)">
            <path d="M251.15,53.64L418.77,221.26L222,418.05C169.451,470.598 100.526,503.695 26.66,511.85C25.778,511.948 24.89,511.998 24.002,511.998C10.836,511.998 0.002,501.164 0.002,487.998C0.002,487.11 0.052,486.222 0.15,485.34L0.15,485.11C8.369,411.319 41.48,342.482 94,290L245.52,138.48L222.89,115.86L121.07,217.68C118.07,220.68 113.997,222.368 109.755,222.368C105.513,222.368 101.44,220.68 98.44,217.68L75.81,195.05C69.608,188.844 69.608,178.636 75.81,172.43L194.59,53.64C210.105,38.129 235.635,38.129 251.15,53.64Z" style="fill:white;fill-rule:nonzero;"/>
        </g>
    </g>
</svg>
