<?xml version="1.0" standalone="no"?>
<!DOCTYPE svg PUBLIC "-//W3C//DTD SVG 20010904//EN"
 "http://www.w3.org/TR/2001/REC-SVG-20010904/DTD/svg10.dtd">
<svg version="1.0" xmlns="http://www.w3.org/2000/svg"
 width="700.000000pt" height="700.000000pt" viewBox="0 0 700.000000 700.000000"
 preserveAspectRatio="xMidYMid meet">
<metadata>
Created by potrace 1.14, written by Peter Selinger 2001-2017
</metadata>
<g transform="translate(0.000000,700.000000) scale(0.100000,-0.100000)"
fill="#000000" stroke="none">
<path d="M4921 5938 c5 -10 11 -18 12 -18 2 0 3 8 3 18 0 10 -6 19 -13 19 -8
0 -9 -6 -2 -19z"/>
<path d="M4824 5939 c-3 -6 -3 -13 0 -16 3 -4 6 -1 6 5 0 7 4 12 9 12 5 0 9
-11 9 -25 0 -24 -12 -34 -21 -17 -2 4 -2 0 0 -8 11 -39 5 -59 -17 -57 -11 1
-18 6 -16 12 2 5 9 9 15 8 6 -2 11 2 11 7 0 17 -25 11 -38 -10 -12 -20 -6 -26
22 -21 5 1 5 -6 2 -16 -7 -16 -6 -16 12 0 18 17 20 16 36 -8 14 -22 15 -29 5
-42 -12 -13 -15 -13 -29 4 -15 20 -22 23 -42 23 -6 0 -8 3 -5 7 4 3 -1 12 -11
19 -14 11 -15 16 -4 33 18 30 15 39 -4 12 -21 -29 -5 -62 43 -91 21 -12 31
-24 27 -34 -3 -7 -1 -17 5 -21 6 -3 11 -11 11 -17 0 -7 -5 -7 -14 1 -11 9 -15
8 -20 -5 -8 -21 -8 -21 10 -28 14 -5 15 -4 5 8 -9 11 -7 14 14 14 20 0 23 -3
14 -14 -8 -10 -8 -14 0 -14 6 0 11 5 11 10 0 6 5 10 10 10 7 0 7 -6 0 -20 -7
-12 -16 -17 -28 -13 -14 5 -13 2 3 -11 20 -16 20 -16 -4 -13 -13 1 -25 -4 -27
-11 -1 -7 0 -8 3 -2 9 19 21 10 21 -15 0 -14 -4 -25 -9 -25 -5 0 -9 5 -9 12 0
6 -3 8 -6 5 -4 -4 -1 -13 6 -22 8 -9 8 -15 2 -15 -6 0 -14 5 -17 10 -9 15 -26
2 -23 -17 2 -9 -2 -18 -8 -20 -17 -6 -9 38 9 52 18 13 24 30 7 20 -5 -3 -10
-1 -10 4 0 6 -5 11 -11 11 -8 0 -8 -5 1 -15 9 -11 9 -15 1 -15 -17 0 -25 30
-12 43 8 8 14 8 23 -1 9 -9 14 -7 23 5 10 14 9 20 -8 34 -16 13 -19 20 -10 30
6 8 14 24 17 36 6 18 1 25 -23 38 -17 8 -36 27 -44 41 l-13 25 -24 -21 c-26
-23 -41 -26 -37 -7 1 6 -6 11 -16 11 -10 -1 -16 3 -14 10 5 13 39 9 50 -7 6
-8 7 -5 3 6 -3 10 -6 20 -6 23 0 2 -8 1 -17 -2 -16 -5 -16 -4 1 10 18 14 14
42 -5 30 -5 -3 -7 -8 -5 -12 4 -7 -12 -25 -29 -33 -5 -2 -9 -8 -7 -13 5 -14
-41 -57 -56 -51 -8 3 -10 0 -6 -7 5 -8 2 -9 -9 -5 -10 4 -17 2 -17 -4 0 -7 10
-9 25 -5 18 5 23 3 19 -7 -3 -8 2 -20 11 -27 8 -7 15 -17 15 -22 0 -6 -7 -5
-15 2 -9 7 -15 8 -15 2 0 -17 28 -22 41 -6 6 8 14 12 17 9 3 -3 -3 -14 -13
-25 -17 -19 -12 -26 18 -21 5 1 7 -9 5 -21 -2 -16 -9 -22 -23 -21 -11 1 -14 0
-7 -3 20 -9 13 -21 -13 -21 -14 0 -25 3 -25 8 0 5 5 9 11 9 8 0 9 4 0 13 -6 8
-8 17 -4 20 3 4 3 7 -2 7 -10 0 -34 -31 -35 -44 0 -6 6 -2 13 8 12 17 14 16
14 -13 0 -24 -3 -28 -14 -20 -22 19 -15 1 11 -24 21 -21 25 -22 45 -9 11 8 21
10 21 5 0 -5 -12 -16 -26 -24 -23 -12 -27 -12 -41 6 -14 19 -15 19 -28 2 -10
-14 -19 -17 -37 -11 -13 4 -27 8 -31 9 -5 0 -15 8 -22 18 -14 19 -10 45 9 60
7 6 4 7 -7 3 -14 -4 -16 -1 -11 19 4 15 2 25 -5 25 -6 0 -8 -7 -4 -17 5 -12 3
-14 -7 -8 -9 5 -11 4 -6 -4 12 -18 -14 -44 -30 -31 -9 9 -12 5 -10 -15 4 -34
12 -41 31 -25 9 7 19 9 23 5 4 -4 1 -10 -5 -12 -7 -3 -13 -9 -13 -15 0 -7 5
-6 14 1 11 9 14 6 14 -14 0 -21 -3 -23 -14 -14 -12 10 -13 9 -8 -5 4 -10 13
-15 21 -12 8 3 17 6 20 6 3 0 0 7 -7 15 -8 9 -9 15 -2 15 6 0 13 -4 17 -10 3
-5 13 -6 23 -3 15 6 15 5 3 -10 -7 -9 -19 -17 -27 -17 -7 0 -16 -5 -20 -12 -5
-8 -2 -9 12 -4 51 21 50 21 37 5 -10 -12 -8 -17 8 -27 17 -11 18 -16 8 -28 -7
-8 -20 -12 -30 -9 -11 4 -19 2 -19 -5 0 -6 5 -8 10 -5 6 3 10 2 10 -4 0 -5 -4
-12 -9 -16 -11 -6 -25 12 -26 37 -1 14 4 17 29 13 29 -5 30 -4 13 9 -11 8 -25
12 -32 10 -7 -3 -24 9 -39 27 -29 35 -40 32 -41 -9 0 -20 -5 -27 -19 -27 -11
0 -22 7 -24 15 -5 13 -3 13 11 1 11 -9 17 -10 17 -2 0 6 -5 11 -12 11 -6 0 -4
7 5 18 10 10 17 23 17 28 0 4 -7 -1 -15 -13 -10 -14 -22 -19 -35 -16 -27 7
-25 23 3 20 17 -2 22 3 20 21 -2 12 2 22 7 22 6 0 10 -5 10 -12 0 -6 2 -9 5
-6 3 3 3 12 0 20 -7 17 -35 20 -32 4 1 -6 -5 -10 -13 -8 -10 1 -9 -2 4 -13 24
-18 15 -31 -11 -17 -15 9 -19 7 -20 -10 -1 -12 6 -22 17 -25 11 -3 17 -10 14
-15 -3 -5 -17 -2 -32 8 -18 12 -23 13 -15 3 6 -8 28 -23 47 -33 35 -18 37 -19
56 -1 11 10 20 13 20 7 0 -6 -9 -17 -20 -25 -11 -8 -17 -17 -13 -20 3 -4 12 2
20 12 12 18 53 19 53 1 0 -13 -30 -33 -37 -26 -4 4 -1 12 7 17 13 9 13 10 0 6
-9 -2 -14 -14 -12 -27 2 -19 0 -21 -13 -10 -9 7 -15 8 -15 2 0 -19 28 -20 46
-1 21 24 30 18 13 -9 -11 -18 -10 -24 5 -41 11 -12 14 -21 8 -21 -6 0 -17 8
-24 18 -15 20 -48 28 -48 12 0 -6 4 -9 8 -6 17 10 50 -23 45 -44 -3 -11 -9
-20 -13 -20 -13 0 -33 30 -26 37 4 4 12 1 17 -7 9 -13 10 -13 6 0 -2 8 -14 14
-26 13 -14 -2 -21 3 -22 15 -1 9 -2 29 -3 43 -2 44 -45 81 -98 84 -20 1 -25
-2 -20 -14 5 -14 4 -14 -14 -1 -12 9 -15 9 -7 1 18 -21 5 -40 -24 -35 -21 4
-24 2 -19 -12 9 -23 -13 -48 -30 -34 -10 9 -11 5 -8 -17 6 -33 6 -70 2 -98 -2
-11 2 -19 9 -18 6 1 17 -4 23 -12 11 -13 9 -15 -10 -12 -33 5 -52 35 -39 60 7
12 7 17 1 13 -5 -3 -13 1 -16 10 -9 24 -7 28 9 14 10 -9 15 -9 15 -1 0 6 -5
11 -11 11 -5 0 -8 4 -5 8 3 5 -1 9 -9 9 -8 0 -13 -5 -12 -11 1 -6 -5 -10 -13
-8 -11 2 -11 -1 3 -11 21 -17 23 -31 2 -24 -8 4 -17 1 -21 -5 -4 -7 -3 -8 4
-4 7 4 12 2 12 -5 0 -8 4 -8 15 1 13 11 15 9 12 -11 -3 -15 5 -30 22 -45 21
-18 29 -20 49 -11 20 9 26 8 34 -6 5 -10 13 -15 19 -12 5 4 9 -1 9 -9 0 -22
-16 -20 -32 3 -11 15 -17 17 -28 8 -13 -10 -11 -16 13 -39 15 -15 27 -24 27
-20 0 4 5 0 10 -8 7 -12 9 -11 9 5 0 11 2 31 3 45 2 16 -2 24 -9 23 -15 -3
-17 13 -3 22 5 3 17 -6 26 -20 13 -20 14 -29 5 -38 -6 -6 -11 -18 -10 -26 0
-12 2 -11 8 3 4 10 18 20 32 22 13 1 30 4 38 6 7 1 16 -3 18 -10 3 -8 -2 -10
-14 -6 -11 4 -14 3 -6 -3 16 -12 20 -45 5 -50 -7 -3 -10 1 -7 10 3 7 0 18 -7
24 -15 12 -49 13 -42 2 2 -4 -4 -14 -15 -21 -18 -13 -18 -14 5 -31 23 -17 30
-13 25 16 -2 12 13 8 39 -13 22 -17 23 -22 13 -39 -7 -12 -13 -26 -12 -33 0
-7 5 -2 10 11 9 23 10 23 30 5 16 -14 19 -15 14 -2 -4 10 1 17 16 21 13 4 20
9 17 12 -3 4 -16 1 -28 -5 -26 -14 -27 -13 -34 24 -4 21 -2 26 9 22 9 -3 12 0
8 10 -4 10 0 12 11 8 9 -3 16 -1 16 6 0 6 -4 9 -9 6 -12 -8 -34 20 -27 33 3 5
3 16 0 24 -5 14 -10 13 -37 -4 -18 -10 -35 -19 -38 -19 -12 0 -17 38 -6 49 17
17 31 13 17 -4 -7 -9 -10 -18 -6 -22 3 -3 6 -1 6 6 0 7 4 10 10 6 5 -3 19 0
30 7 18 11 23 10 40 -12 10 -14 15 -26 10 -28 -6 -2 -10 -8 -10 -13 0 -6 4 -8
9 -4 11 6 25 -12 26 -38 1 -11 -3 -16 -12 -13 -8 3 -11 1 -8 -4 3 -6 -1 -10
-9 -10 -9 0 -16 -5 -16 -10 0 -7 7 -7 21 0 15 9 24 8 36 -1 13 -12 13 -15 -6
-31 -12 -9 -22 -19 -21 -22 1 -19 -1 -26 -7 -25 -29 5 -33 -2 -16 -25 17 -23
18 -23 31 -5 7 11 18 16 24 13 6 -4 5 -10 -3 -15 -8 -5 -9 -9 -4 -9 6 0 20 7
32 15 18 13 22 13 33 0 6 -8 8 -20 4 -26 -4 -7 -3 -9 3 -6 6 4 14 0 17 -9 9
-24 7 -28 -8 -15 -11 9 -15 8 -20 -5 -7 -19 1 -34 17 -33 9 0 9 2 0 6 -22 8
-14 21 12 21 26 0 33 -13 13 -22 -7 -3 -4 -4 7 -3 11 1 21 -5 23 -15 2 -10 -2
-18 -8 -18 -6 0 -9 4 -6 9 3 4 -5 7 -17 6 -12 0 -31 3 -42 8 -11 6 -5 -5 15
-24 19 -19 38 -33 42 -32 3 2 9 -3 12 -9 4 -9 5 -8 4 2 -1 8 2 25 6 38 5 14 3
29 -5 38 -6 8 -9 17 -6 20 3 3 13 -6 23 -21 13 -20 14 -29 5 -38 -6 -6 -11
-18 -10 -27 0 -11 2 -10 8 4 4 10 18 20 32 22 13 1 30 4 38 6 7 1 16 -3 18
-10 3 -8 -2 -10 -14 -6 -11 4 -14 3 -6 -3 16 -12 20 -45 5 -50 -7 -3 -10 1 -7
10 3 7 0 18 -7 24 -15 12 -49 13 -42 2 2 -4 -4 -14 -15 -21 -18 -13 -18 -14 5
-31 23 -17 30 -13 25 16 -2 12 13 8 39 -13 22 -17 23 -22 13 -39 -7 -12 -13
-26 -12 -33 0 -7 5 -2 10 11 9 23 10 23 30 5 17 -16 19 -16 13 -1 -6 18 1 20
59 19 32 -1 34 4 7 18 -15 8 -27 7 -51 -5 -36 -19 -36 -19 -43 19 -4 21 -2 26
9 22 9 -3 12 0 8 10 -4 10 0 12 11 8 9 -3 16 -1 16 6 0 6 -4 9 -9 6 -12 -8
-34 20 -27 33 3 5 3 16 0 24 -5 14 -10 13 -37 -4 -18 -10 -35 -19 -38 -19 -12
0 -17 38 -6 49 17 17 31 13 17 -4 -7 -9 -10 -18 -6 -22 3 -3 6 -1 6 6 0 7 4
10 10 6 5 -3 19 0 30 7 18 11 23 10 40 -12 10 -14 15 -26 10 -28 -6 -2 -10 -8
-10 -13 0 -6 4 -8 9 -4 11 6 25 -12 26 -38 1 -11 -3 -16 -12 -13 -8 3 -11 1
-8 -4 3 -6 -1 -10 -9 -10 -9 0 -16 -5 -16 -10 0 -6 13 -4 30 5 24 12 34 13 49
3 15 -9 22 -8 35 5 15 14 15 16 -3 14 -11 0 -17 -5 -14 -10 3 -5 0 -7 -8 -5
-8 3 -13 14 -12 24 1 10 0 13 -3 7 -9 -21 -21 -14 -21 12 0 25 11 34 20 15 3
-6 4 -5 3 2 -2 7 -14 12 -27 11 -24 -3 -24 -3 -4 13 16 13 17 16 3 11 -12 -4
-21 1 -28 13 -7 14 -7 20 0 20 5 0 10 -4 10 -10 0 -5 5 -10 11 -10 8 0 8 4 0
14 -9 11 -6 14 14 14 21 0 23 -3 14 -14 -10 -12 -9 -13 5 -8 10 4 15 13 12 21
-3 8 -6 17 -6 20 0 3 -8 -1 -17 -8 -15 -12 -16 -12 -10 4 4 10 7 21 7 23 0 3
5 2 10 -1 6 -4 6 3 -1 18 -9 21 -7 28 21 58 l31 34 30 -33 30 -33 25 31 c16
19 33 29 43 26 36 -12 40 8 11 51 l-29 42 25 16 c21 13 28 14 41 4 13 -12 13
-15 -5 -29 -19 -16 -19 -18 -4 -50 15 -31 15 -33 -4 -47 -19 -14 -19 -14 0
-28 16 -12 18 -19 8 -40 -6 -14 -17 -25 -23 -25 -7 0 -6 9 4 24 14 20 14 25 2
30 -10 3 -12 0 -8 -11 4 -11 3 -14 -6 -9 -8 5 -10 0 -7 -19 3 -17 1 -25 -7
-22 -14 4 -16 36 -4 53 4 7 1 14 -9 18 -19 7 -34 -1 -33 -17 0 -9 2 -9 6 1 8
21 21 13 21 -13 0 -24 -12 -34 -21 -17 -2 4 -2 1 0 -6 2 -9 -4 -11 -20 -7 -17
5 -19 4 -7 -4 13 -9 13 -11 -2 -11 -10 0 -18 -5 -18 -10 0 -6 13 -4 31 5 23
12 34 13 44 5 10 -8 19 -8 33 -1 16 9 23 6 34 -11 l15 -22 -2 22 c-1 12 -4 25
-8 28 -17 18 -5 25 13 9 20 -18 21 -18 14 1 -6 15 -4 17 6 7 10 -9 16 -7 29 9
15 18 18 18 30 4 13 -15 8 -36 -9 -36 -5 0 -7 8 -3 18 5 13 3 14 -7 5 -15 -14
-5 -32 18 -31 9 0 26 -3 37 -7 14 -5 16 -4 6 3 -10 7 -10 11 -1 17 8 5 1 14
-20 27 -18 10 -30 22 -27 25 3 3 19 -3 35 -12 28 -17 29 -17 80 16 28 19 52
38 52 43 0 5 -6 3 -14 -3 -11 -9 -13 -6 -13 14 0 21 2 23 13 14 12 -10 13 -9
8 5 -4 10 -13 15 -21 12 -8 -3 -17 -6 -20 -6 -3 0 1 -8 8 -17 12 -15 12 -16
-4 -10 -10 4 -21 7 -23 7 -3 0 -2 4 1 10 3 5 0 7 -8 4 -16 -6 -44 23 -33 33 4
4 11 1 16 -7 5 -8 12 -11 16 -7 4 4 -1 14 -12 21 -16 12 -20 12 -27 0 -4 -8
-5 -19 -1 -26 5 -8 2 -9 -10 -5 -10 4 -20 7 -22 7 -2 0 -4 7 -4 16 0 8 4 13 9
9 6 -3 14 2 19 12 9 15 14 15 37 5 14 -7 24 -8 21 -3 -3 5 1 12 10 15 24 9 28
7 14 -9 -7 -9 -8 -15 -2 -15 19 0 21 28 3 44 -20 19 -31 20 -31 5 0 -5 5 -7
10 -4 6 3 10 2 10 -3 0 -8 -22 -22 -34 -22 -7 0 2 42 11 51 7 7 20 2 41 -16
30 -25 31 -25 37 -5 3 11 11 20 16 20 5 0 9 5 9 10 0 6 -8 5 -19 -2 -11 -7
-17 -16 -15 -20 9 -14 -4 -8 -50 22 -26 18 -43 36 -40 44 6 15 -18 38 -36 34
-7 -2 -14 2 -17 9 -6 16 48 7 60 -10 6 -8 7 -5 3 6 -4 12 -2 17 6 14 14 -5 14
-9 4 -44 -10 -31 41 -58 79 -41 14 6 25 15 25 20 0 5 -8 5 -17 0 -18 -9 -71
-7 -80 2 -3 3 4 21 15 41 12 19 17 35 12 35 -6 0 -10 -5 -10 -11 0 -5 -5 -7
-11 -3 -7 4 -6 11 5 22 13 13 18 14 28 4 10 -10 10 -17 0 -33 -7 -11 -10 -24
-7 -29 4 -6 1 -10 -6 -10 -7 0 -9 -3 -6 -6 4 -4 13 -1 22 6 10 8 15 9 15 1 0
-6 5 -11 11 -11 8 0 8 4 -1 14 -9 12 -8 15 9 13 12 -1 24 -10 27 -20 6 -18 7
-18 28 2 27 25 30 26 56 4 25 -22 25 -35 0 -64 -23 -28 -27 -13 -4 19 15 22 9
28 -20 23 -5 -1 -5 6 -2 16 6 16 5 16 -13 -1 -19 -18 -19 -46 1 -46 6 0 6 6
-2 14 -9 12 -8 15 9 13 25 -2 26 -10 4 -32 -15 -16 -18 -15 -35 7 -10 12 -16
16 -13 7 3 -8 -3 -23 -15 -34 -11 -10 -20 -23 -20 -28 0 -6 7 -2 15 9 14 18
15 18 12 -5 -1 -13 4 -25 11 -27 7 -1 8 0 2 3 -19 9 -10 21 15 21 26 0 33 -13
13 -22 -7 -3 -4 -4 7 -3 16 2 20 -4 20 -25 -1 -16 1 -28 2 -28 2 0 8 12 14 28
6 15 13 22 16 15 2 -7 -1 -21 -7 -32 -8 -16 -8 -27 1 -43 24 -46 59 -74 59
-47 0 5 -4 7 -10 4 -5 -3 -10 -2 -10 4 0 5 6 12 13 15 6 3 2 3 -10 0 -15 -3
-23 -1 -24 8 -7 103 -6 110 34 135 22 14 41 22 44 19 3 -3 -11 -15 -31 -27
-42 -24 -43 -29 -16 -54 15 -13 24 -15 31 -8 13 13 4 33 -14 33 -7 0 -6 -4 3
-10 8 -5 11 -12 7 -16 -4 -4 -15 0 -24 9 -19 18 -17 23 11 29 26 4 44 -26 30
-49 -12 -19 -44 -19 -56 0 -6 9 -8 8 -8 -1 0 -8 9 -16 20 -19 11 -3 17 -9 15
-14 -3 -4 -12 -6 -20 -2 -8 3 -15 -1 -15 -8 0 -7 3 -9 6 -6 12 11 41 -11 39
-30 -2 -27 -15 -45 -30 -39 -16 6 -27 -18 -18 -41 5 -17 5 -17 -11 -2 -15 14
-16 20 -6 36 11 17 8 27 -21 71 -19 28 -38 52 -43 52 -5 0 -3 -6 3 -14 9 -11
6 -13 -14 -13 -26 0 -34 12 -12 20 9 4 9 6 0 6 -16 1 -24 -14 -17 -33 5 -14 9
-14 22 -4 13 11 15 10 9 -5 -4 -10 -7 -21 -7 -23 0 -3 -5 -2 -12 2 -7 4 -8 3
-4 -5 4 -6 2 -18 -4 -26 -10 -12 -15 -12 -35 1 -19 13 -28 13 -47 3 -41 -21
-59 -41 -52 -61 5 -17 -12 -25 -41 -18 -5 2 -18 4 -28 5 -9 1 -22 6 -28 12
-13 13 -39 6 -39 -9 0 -7 5 -6 13 1 11 8 14 4 14 -20 0 -29 -2 -30 -14 -13 -7
10 -13 14 -13 8 1 -16 29 -48 37 -41 3 4 3 7 -2 7 -4 0 -2 7 5 15 9 10 9 15 1
15 -6 0 -11 4 -11 9 0 5 11 9 25 9 14 0 25 -4 25 -9 0 -5 -5 -9 -12 -9 -6 0
-8 -3 -5 -6 4 -4 13 -1 22 6 9 8 15 8 15 2 0 -6 -5 -14 -10 -17 -6 -4 -8 -11
-5 -16 4 -5 -1 -12 -10 -15 -12 -5 -13 -10 -4 -20 6 -8 15 -11 20 -8 5 3 9 1
9 -5 0 -17 -17 -21 -30 -6 -12 15 -40 10 -40 -7 0 -6 6 -5 15 2 18 15 20 -1 3
-18 -17 -17 -25 -15 -31 7 -3 13 2 25 15 33 20 13 19 14 -8 12 -16 -1 -32 -2
-36 -3 -4 0 2 -17 14 -36 11 -20 18 -39 14 -42 -7 -8 -84 -8 -92 0 -8 8 4 27
17 27 6 0 7 -4 4 -10 -3 -5 -1 -10 4 -10 6 0 11 5 11 11 0 8 5 7 15 -1 9 -7
18 -10 22 -6 3 3 1 6 -5 6 -7 0 -11 3 -10 8 1 4 -2 17 -6 30 -6 17 -3 27 9 35
10 8 14 19 9 30 -9 24 -31 4 -31 -29 0 -34 -10 -41 -30 -21 -9 9 -13 20 -9 24
4 4 12 1 17 -7 8 -12 9 -10 4 6 -3 13 0 26 9 33 16 13 11 41 -6 41 -6 0 -5 -6
2 -15 16 -19 7 -19 -30 0 -27 14 -33 14 -58 1 -40 -21 -58 -44 -44 -58 15 -15
34 0 27 23 -7 20 0 22 59 21 38 -1 43 -8 21 -32 -14 -16 -15 -22 -5 -35 14
-17 0 -21 -17 -4 -12 12 -6 39 11 51 7 5 6 8 -2 8 -8 0 -16 -9 -19 -20 -3 -11
-9 -17 -14 -15 -4 3 -6 12 -2 20 3 8 0 15 -7 15 -6 0 -9 -4 -6 -8 3 -5 -2 -18
-10 -30 -15 -21 -40 -20 -57 2 -5 7 -6 4 -3 -7 4 -12 2 -17 -6 -14 -7 2 -12
12 -10 22 2 10 -1 14 -7 10 -17 -10 -13 4 9 27 18 20 18 22 2 34 -9 7 -14 15
-11 18 3 3 14 -1 25 -8 16 -13 17 -18 7 -35 -18 -29 -16 -40 2 -14 9 12 13 34
11 48 -3 14 0 25 5 25 5 0 9 5 9 11 0 8 -4 8 -14 0 -11 -9 -13 -6 -13 14 0 21
2 23 13 14 12 -10 13 -9 8 5 -4 10 -13 15 -21 12 -8 -3 -17 -6 -20 -6 -3 0 0
-6 7 -14 9 -12 8 -15 -9 -13 -13 1 -19 6 -17 14 3 7 -1 10 -9 7 -12 -5 -12 -9
0 -28 8 -13 12 -26 9 -29 -4 -4 -1 -14 7 -23 11 -14 10 -19 -8 -33 -17 -15
-19 -20 -7 -35 7 -10 10 -25 7 -33 -5 -12 -1 -14 15 -9 21 7 34 -5 39 -38 3
-15 1 -16 -11 -7 -11 9 -15 8 -20 -5 -7 -19 1 -34 17 -33 9 0 9 2 0 6 -22 8
-14 21 12 21 20 0 23 -3 14 -14 -19 -23 -2 -16 24 10 18 18 22 28 15 40 -6 12
-5 22 3 33 12 13 15 13 30 -6 9 -11 19 -17 23 -14 11 11 47 10 43 -1 -2 -6
-11 -10 -20 -8 -8 1 -18 -2 -22 -8 -10 -16 -22 -12 -28 12 -4 12 -9 19 -13 15
-11 -11 24 -55 56 -72 26 -14 33 -14 58 -1 15 8 36 23 46 35 21 23 46 30 28 8
-16 -18 53 -56 70 -39 22 22 32 12 11 -10 -34 -38 -45 -66 -34 -87 8 -14 5
-23 -14 -41 -14 -13 -25 -19 -25 -13 0 6 6 16 14 23 15 12 10 44 -5 34 -15 -9
-10 12 5 25 28 24 25 47 -9 65 -33 18 -33 18 -84 -15 -28 -19 -51 -38 -51 -42
0 -5 14 3 31 18 34 28 51 23 54 -15 1 -14 -3 -19 -12 -15 -8 3 -17 5 -19 5 -2
0 -4 5 -4 11 0 5 5 7 10 4 6 -3 10 -1 10 4 0 15 -11 14 -31 -5 -18 -16 -16
-44 3 -44 6 0 4 8 -3 17 -12 15 -12 16 4 10 10 -4 21 -7 23 -7 3 0 2 -5 -1
-10 -4 -6 3 -6 18 1 21 9 28 8 46 -10 20 -20 20 -20 0 -34 -16 -12 -17 -16 -6
-26 8 -6 17 -8 20 -4 4 3 7 1 7 -5 0 -7 5 -12 11 -12 8 0 8 4 0 14 -9 11 -6
14 14 14 21 0 23 -3 14 -14 -10 -12 -9 -13 5 -8 10 4 15 13 12 21 -3 8 -6 17
-6 20 0 3 -7 0 -15 -7 -15 -12 -22 0 -7 14 4 4 8 20 8 34 1 15 2 35 3 44 1 12
8 17 22 15 12 -1 24 5 26 13 4 13 3 13 -6 0 -5 -8 -13 -11 -17 -7 -7 7 13 37
26 37 4 0 10 -9 13 -20 5 -21 -28 -54 -45 -44 -4 3 -8 0 -8 -6 0 -16 33 -8 48
13 7 9 18 17 24 17 6 0 3 -9 -8 -21 -15 -17 -16 -23 -5 -41 17 -27 8 -33 -13
-9 -18 19 -46 18 -46 -1 0 -6 6 -5 15 2 18 15 20 -1 3 -18 -9 -9 -9 -15 1 -24
10 -11 12 -9 9 6 -1 10 2 21 7 23 24 8 12 -38 -16 -61 l-30 -25 33 -30 c28
-25 30 -31 19 -45 -7 -9 -18 -16 -24 -16 -7 0 -7 4 1 12 7 7 12 16 12 22 0 5
-8 1 -18 -10 -17 -17 -17 -20 -3 -31 12 -9 18 -7 29 8 7 11 18 17 23 14 5 -3
6 1 3 10 -5 11 -2 14 12 9 15 -5 16 -4 5 4 -8 6 -14 27 -14 51 0 46 6 57 25
45 7 -5 36 -9 64 -10 53 -1 74 -8 74 -26 0 -6 -6 -6 -15 2 -11 9 -19 10 -27 2
-12 -12 -3 -32 15 -32 7 0 6 4 -3 10 -8 5 -11 12 -7 16 4 4 15 0 24 -9 22 -22
12 -30 -37 -30 -52 0 -61 10 -31 34 13 10 19 19 14 19 -5 0 -14 -5 -21 -12 -9
-9 -12 -9 -12 0 0 7 -5 12 -11 12 -8 0 -8 -5 1 -15 8 -9 9 -15 2 -15 -6 0 -17
9 -25 21 -14 19 -15 19 -13 -12 1 -19 8 -34 16 -37 13 -3 13 -2 0 7 -8 5 -11
13 -7 17 3 4 14 1 23 -7 14 -12 14 -14 -2 -26 -23 -17 -10 -17 17 0 17 10 22
9 35 -8 15 -20 15 -20 29 -1 13 17 18 18 40 8 15 -7 24 -8 21 -3 -3 5 1 12 10
15 24 9 28 7 14 -9 -7 -9 -8 -15 -2 -15 17 0 22 28 6 41 -9 7 -12 20 -8 33 6
20 5 20 -11 -1 -9 -13 -21 -23 -27 -23 -7 0 -7 4 0 13 8 10 6 16 -9 25 -16 10
-18 16 -9 27 13 16 52 16 47 0 -2 -5 -13 -8 -23 -7 -15 3 -16 1 -7 -9 10 -10
15 -9 28 1 19 16 28 9 28 -24 0 -33 22 -53 31 -29 4 11 1 22 -8 29 -22 16 -20
31 9 59 25 26 52 34 39 13 -4 -7 2 -5 14 5 11 11 26 16 31 12 17 -10 13 -23
-6 -21 -13 1 -17 -5 -15 -18 3 -17 2 -18 -12 -7 -9 8 -16 9 -16 3 0 -17 28
-21 41 -6 7 8 19 12 27 9 9 -3 27 5 42 20 l27 26 22 -36 c11 -20 21 -40 21
-45 0 -15 -37 -30 -56 -23 -16 6 -17 5 -4 -9 9 -10 19 -13 25 -7 18 18 28 9
11 -10 -13 -14 -14 -21 -5 -27 8 -5 10 -3 4 6 -6 10 -4 12 7 7 10 -3 15 0 14
11 0 10 5 16 14 14 12 -3 12 -1 3 9 -6 6 -9 17 -6 24 2 8 -3 25 -12 39 -10 14
-13 26 -9 26 5 0 1 5 -8 11 -10 5 -18 15 -18 21 0 7 5 6 15 -2 11 -9 21 -9 45
1 16 8 30 18 30 22 0 5 -4 6 -9 2 -5 -3 -12 -1 -16 5 -3 5 1 10 9 10 9 0 16 5
16 10 0 7 -6 7 -19 1 -18 -10 -31 -6 -31 10 0 5 6 6 14 3 8 -3 17 -1 21 5 3 7
0 8 -9 5 -11 -4 -16 0 -17 12 -2 23 -1 25 4 44 2 8 2 12 0 8 -9 -17 -20 -7
-20 17 0 25 11 34 20 15 3 -6 4 -5 3 2 -2 7 -14 12 -27 11 -24 -3 -24 -3 -4
13 16 13 17 16 3 11 -12 -4 -21 1 -28 13 -7 14 -7 20 0 20 5 0 10 -4 10 -10 0
-5 5 -10 11 -10 8 0 8 4 0 14 -9 11 -6 14 14 14 21 0 23 -3 14 -14 -10 -12 -9
-13 5 -8 10 4 15 13 12 21 -3 8 -6 17 -6 20 0 3 -8 -1 -17 -8 -15 -12 -16 -12
-10 4 4 10 7 21 7 23 0 3 5 2 10 -1 6 -4 6 3 -1 18 -9 21 -8 28 10 46 12 12
21 18 21 14 0 -3 9 2 21 13 20 18 20 18 14 -8 -4 -16 -2 -29 5 -33 9 -5 10 -1
5 16 -7 23 -6 23 11 6 17 -16 17 -18 2 -33 -15 -15 -17 -15 -29 4 -10 16 -17
18 -35 10 -21 -10 -22 -13 -9 -31 7 -10 11 -27 8 -36 -3 -9 2 -6 11 7 17 22
13 48 -5 37 -5 -4 -9 -1 -9 4 0 14 23 14 37 0 12 -12 6 -39 -11 -51 -7 -5 -7
-8 2 -8 7 0 16 10 21 22 4 12 11 17 14 11 9 -15 -21 -53 -38 -47 -22 9 -18 -4
5 -16 15 -8 27 -7 47 4 19 10 23 15 11 16 -9 0 -20 -4 -23 -10 -3 -5 -12 -10
-18 -10 -7 1 -1 10 12 20 13 11 20 20 17 20 -4 0 -2 9 4 20 6 10 16 18 23 16
6 -1 9 -1 5 1 -17 9 -7 21 17 21 25 0 34 -12 15 -21 -6 -3 -5 -4 2 -3 7 2 12
13 11 24 -2 15 2 20 12 16 8 -4 15 -1 15 6 0 6 -4 9 -9 6 -13 -8 -34 21 -26
36 4 7 -2 2 -12 -10 -18 -22 -21 -23 -36 -7 -22 22 -21 30 4 32 17 2 18 -1 9
-13 -8 -8 -8 -14 -2 -14 17 0 22 28 6 41 -8 6 -12 14 -9 17 3 3 14 -3 25 -13
19 -17 26 -12 21 18 -2 11 17 9 22 -3 3 -6 4 -5 3 2 -2 7 -9 13 -17 13 -8 0
-13 -6 -12 -12 4 -17 0 -16 -41 7 l-34 21 -7 -21 c-3 -11 -11 -18 -16 -15 -5
4 -4 14 3 24 9 14 7 23 -5 42 -20 27 -23 18 -4 -12 10 -17 9 -22 -6 -33 -15
-11 -15 -15 -3 -19 9 -4 12 -14 9 -27 -3 -12 -11 -19 -19 -16 -8 3 -11 0 -8
-8 3 -9 -3 -13 -18 -12 -26 1 -33 36 -8 44 13 5 13 3 1 -11 -7 -10 -9 -17 -3
-17 5 0 13 7 16 16 3 8 10 12 16 9 5 -3 10 -1 10 5 0 7 -7 10 -15 7 -18 -7
-30 9 -13 17 7 3 4 4 -6 3 -10 -1 -21 3 -23 9 -2 6 7 10 19 9 40 -3 50 4 34
27 -8 11 -12 27 -9 36 4 10 2 13 -5 8 -7 -4 -12 -3 -12 2 0 6 7 13 16 16 23 9
24 8 18 -11 -5 -14 -4 -15 4 -4 5 7 22 14 36 14 15 0 29 3 32 8 3 5 -2 6 -10
3 -9 -3 -16 -1 -16 5 0 6 5 11 12 11 6 0 9 2 6 5 -8 9 -38 -6 -32 -16 3 -5 -2
-9 -11 -9 -9 0 -13 5 -9 11 3 6 -7 4 -23 -5 -23 -11 -30 -22 -30 -46 0 -17 3
-26 7 -20 5 8 9 6 14 -5 3 -9 6 -18 6 -19 0 -1 -9 -2 -20 -3 -12 -1 -20 5 -21
15 -4 46 1 76 13 84 10 7 8 8 -4 4 -10 -3 -18 -2 -18 3 0 15 13 20 29 11 10
-5 22 -6 28 -2 14 9 -4 35 -31 45 -14 6 -16 11 -8 19 8 8 7 15 -4 25 -8 8 -11
19 -8 25 4 7 2 8 -4 4 -7 -4 -12 -2 -12 5 0 7 -3 10 -6 6 -3 -3 1 -16 10 -29
21 -29 20 -35 -3 -41 -24 -6 -63 44 -55 70 5 15 4 16 -5 3 -9 -12 -11 -12 -11
-1 0 8 8 20 18 28 9 8 12 12 5 8 -7 -3 -23 1 -36 10 -13 8 -32 13 -41 9 -18
-7 -19 -13 -7 -33 6 -10 10 -10 16 -1 6 9 10 9 17 -1 7 -11 8 -9 4 4 -4 11 -2
17 5 15 6 -2 10 -7 10 -11 -1 -4 -1 -14 -1 -23 0 -10 -6 -13 -18 -10 -19 7
-40 -11 -61 -51 -12 -23 3 -73 21 -73 5 0 5 8 0 18 -8 16 -8 70 0 78 8 8 47
-9 42 -18 -3 -5 -12 -7 -20 -4 -8 3 -14 1 -14 -4 0 -6 8 -10 18 -10 10 0 24
-6 30 -12 10 -10 17 -10 32 0 11 6 21 8 25 3 3 -5 -4 -12 -15 -16 -19 -6 -19
-8 -3 -31 8 -14 18 -22 21 -19 3 3 0 11 -6 17 -7 7 -12 16 -12 22 0 5 3 6 7 3
3 -4 12 1 19 11 12 16 14 16 41 0 15 -9 29 -22 32 -29 2 -7 -10 -3 -27 9 -25
18 -31 19 -36 7 -3 -8 -3 -21 0 -29 3 -7 -9 -25 -26 -40 l-32 -26 31 -25 c27
-24 40 -70 16 -62 -5 2 -8 13 -7 23 3 15 1 17 -9 7 -10 -10 -10 -16 -1 -25 17
-17 15 -33 -3 -18 -9 7 -15 8 -15 2 0 -19 28 -20 46 -1 21 24 30 18 13 -9 -11
-18 -10 -24 5 -41 11 -12 14 -21 8 -21 -6 0 -17 8 -24 18 -15 20 -48 28 -48
12 0 -6 4 -9 8 -6 17 10 50 -23 45 -44 -3 -11 -9 -20 -13 -20 -13 0 -33 30
-26 37 4 4 12 1 17 -7 9 -13 10 -13 6 0 -2 8 -14 14 -26 13 -14 -2 -21 3 -22
15 -1 9 -2 29 -3 44 0 14 -4 30 -8 34 -14 13 -8 27 6 15 11 -9 15 -8 20 5 8
21 8 21 -10 28 -14 5 -15 4 -5 -8 9 -11 7 -13 -14 -13 -20 0 -23 2 -14 13 8
10 8 14 0 14 -6 0 -11 -4 -11 -10 0 -5 -5 -10 -10 -10 -7 0 -7 7 1 21 9 17 8
23 -2 30 -17 11 -35 5 -32 -10 4 -16 -13 -14 -31 5 -16 15 -13 34 4 34 5 0 7
-8 4 -17 -4 -13 -3 -14 3 -5 10 14 38 18 63 10 8 -3 12 -3 8 -1 -17 9 -7 21
17 21 26 0 34 -13 13 -21 -10 -4 -10 -6 -1 -6 16 -1 24 14 17 33 -5 12 -10 14
-19 6 -6 -5 -15 -7 -18 -3 -4 3 -13 0 -22 -7 -18 -15 -19 -1 -1 23 14 18 32
24 21 7 -3 -5 -1 -10 4 -10 15 0 14 11 -5 31 -16 18 -44 16 -44 -3 0 -6 6 -5
15 2 23 19 19 -6 -4 -29 -11 -11 -17 -22 -13 -25 3 -3 -2 -6 -12 -6 -9 0 -14
4 -11 10 3 5 0 7 -8 4 -17 -6 -43 21 -27 31 5 3 10 1 10 -4 0 -6 5 -11 10 -11
6 0 5 8 -2 20 -10 16 -14 17 -21 5 -4 -8 -15 -12 -25 -8 -13 4 -13 2 3 -11 20
-16 20 -16 -4 -13 -13 1 -25 -4 -27 -11 -1 -7 0 -8 3 -2 9 19 21 10 21 -15 0
-24 -12 -34 -21 -17 -2 4 -2 1 -1 -5 2 -7 -6 -17 -16 -23 -11 -6 -20 -8 -20
-4 0 3 -8 -4 -18 -16 -16 -20 -19 -21 -32 -6 -11 15 -11 19 4 34 17 16 18 16
11 -7 -5 -17 -4 -21 5 -16 7 4 9 17 5 33 -6 26 -6 26 14 8 12 -11 24 -16 28
-13 3 4 1 7 -5 7 -7 0 -12 5 -12 11 0 5 5 7 10 4 6 -3 10 -1 10 5 0 7 -8 9
-19 5 -22 -7 -35 27 -18 44 14 14 37 14 37 1 0 -5 -7 -10 -15 -10 -8 0 -15 -4
-15 -8 0 -16 27 -9 38 9 17 26 -23 37 -49 13 -10 -9 -19 -13 -19 -7 0 5 -10
15 -23 20 -19 9 -26 8 -35 -8 -7 -10 -17 -19 -24 -19 -6 0 -3 9 7 20 16 18 17
23 5 45 -7 14 -15 23 -18 20 -3 -2 1 -11 8 -20 17 -20 6 -44 -20 -42 -14 1
-19 6 -15 16 4 9 -5 5 -19 -8 -28 -27 -33 -23 -13 10 10 18 9 23 -13 41 -14
11 -24 28 -22 37 2 11 -1 10 -9 -4 -7 -11 -17 -24 -23 -28 -6 -5 0 -5 14 -2
24 7 24 6 8 -11 -20 -21 -39 -9 -45 27 -3 18 -1 19 11 10 11 -9 15 -8 20 5 8
21 8 21 -10 28 -14 5 -15 4 -5 -8 9 -11 7 -13 -14 -13 -20 0 -23 2 -14 13 8
10 8 14 0 14 -6 0 -11 -4 -11 -9 0 -5 -8 -8 -17 -6 -10 2 -23 4 -29 4 -16 1
-13 61 3 61 7 0 16 0 20 1 4 0 9 -4 11 -10 2 -7 -4 -9 -15 -5 -15 5 -16 4 -3
-5 13 -10 13 -12 0 -22 -12 -9 -11 -10 5 -4 35 13 59 12 83 -2 13 -8 22 -9 23
-3 1 5 2 14 3 20 0 5 6 14 13 21 8 8 14 6 22 -9 6 -11 21 -19 35 -19 23 0 23
1 9 15 -13 14 -13 17 7 32 21 16 21 16 -7 14 -15 -1 -31 -2 -36 -3 -4 0 0 -12
9 -26 9 -14 12 -25 7 -25 -5 0 -16 12 -24 26 -12 23 -12 27 6 40 19 14 19 14
0 28 -18 13 -18 17 -6 40 8 14 19 26 24 26 5 0 3 -10 -5 -21 -13 -20 -12 -24
9 -45 26 -27 43 -33 23 -9 -11 13 -9 15 10 13 13 -2 24 3 26 10 1 7 0 8 -3 2
-9 -19 -20 -10 -20 15 0 24 11 34 20 18 2 -5 2 -2 1 4 -4 16 39 10 44 -6 3 -9
7 -9 18 0 8 6 11 15 8 20 -3 5 -1 9 5 9 17 0 21 -17 6 -30 -15 -12 -10 -40 7
-40 6 0 5 6 -2 15 -8 9 -9 15 -2 15 6 0 13 -4 17 -10 3 -5 12 -7 19 -4 8 3 12
-3 11 -18 -1 -15 -14 -30 -38 -43 -35 -19 -37 -19 -49 -2 -9 12 -20 16 -31 11
-14 -5 -15 -9 -6 -20 6 -8 17 -14 23 -13 32 4 45 -2 43 -21 -1 -11 -5 -20 -9
-20 -4 0 -8 -5 -8 -11 0 -8 5 -8 15 1 8 7 15 8 15 2 0 -5 -6 -15 -14 -21 -10
-8 -16 -8 -25 3 -13 15 -11 37 4 49 6 5 1 6 -11 2 -13 -3 -26 0 -33 9 -13 16
-41 11 -41 -6 0 -6 6 -5 15 2 13 11 15 10 12 -6 -4 -30 -18 -46 -34 -40 -8 3
-12 2 -9 -3 3 -5 -1 -12 -10 -15 -24 -9 -28 -7 -15 8 9 11 8 15 -5 20 -21 8
-21 8 -28 -10 -5 -14 -4 -15 8 -5 11 9 14 7 14 -14 0 -20 -3 -23 -14 -14 -23
19 -16 2 10 -24 14 -14 27 -22 30 -20 3 3 8 -2 12 -11 3 -9 10 -16 15 -16 16
0 -14 39 -36 45 -20 5 -20 6 4 25 29 25 42 26 35 3 -4 -11 -3 -14 3 -7 17 22
42 23 57 2 8 -12 13 -25 10 -30 -3 -4 0 -8 6 -8 7 0 10 7 7 15 -4 8 -2 17 2
20 5 2 11 -4 14 -15 3 -11 11 -20 19 -20 8 0 9 3 2 8 -17 12 -23 39 -11 51 14
14 37 14 37 0 0 -5 -4 -8 -9 -4 -18 11 -22 -15 -5 -37 9 -14 14 -16 11 -6 -3
9 0 24 8 34 11 16 10 20 -13 34 -27 16 -40 65 -15 56 8 -3 11 -1 8 4 -3 6 -1
10 4 10 6 0 11 -4 11 -10 0 -5 5 -10 11 -10 8 0 8 5 -1 15 -7 8 -8 15 -2 15 5
0 15 -6 21 -14 14 -17 -9 -39 -33 -30 -10 4 -16 1 -16 -7 0 -7 3 -10 6 -6 3 3
15 -4 26 -15 17 -17 18 -24 9 -45 -6 -13 -7 -22 -2 -19 5 3 12 -1 15 -10 9
-24 7 -28 -9 -14 -8 7 -15 10 -15 7 0 -3 -3 -12 -6 -20 -3 -8 2 -17 12 -21 14
-5 15 -4 5 8 -9 11 -7 14 14 14 20 0 23 -3 14 -14 -6 -8 -7 -14 -3 -14 5 0 24
23 43 51 30 47 32 53 20 76 -8 14 -25 30 -39 35 -14 6 -20 12 -13 15 7 2 21
-1 32 -7 15 -8 27 -8 42 0 16 9 26 8 44 -4 34 -22 43 -20 13 3 -18 14 -39 19
-83 18 -61 -1 -85 6 -85 25 0 6 6 6 15 -2 11 -9 19 -10 27 -2 12 12 3 32 -15
32 -7 0 -6 -4 3 -10 8 -5 11 -12 7 -16 -7 -7 -37 13 -37 26 0 18 41 17 53 -1
8 -10 17 -16 20 -12 4 3 -2 13 -14 21 -12 8 -18 21 -15 31 5 14 4 13 -8 -1 -7
-10 -19 -18 -27 -18 -11 0 -11 2 1 10 11 7 6 8 -18 5 -26 -3 -32 0 -28 10 3 8
-4 21 -16 29 -19 14 -20 18 -9 42 10 22 9 30 -1 39 -10 10 -17 8 -31 -7 -17
-17 -17 -19 -1 -16 9 2 19 -3 22 -11 3 -8 0 -11 -6 -7 -12 7 -68 -12 -59 -20
3 -3 15 0 27 6 26 14 27 13 34 -23 3 -19 1 -27 -7 -24 -7 2 -11 13 -9 23 2 11
-1 15 -5 9 -13 -16 -39 -16 -52 -1 -9 11 -8 17 7 28 19 13 22 18 22 39 0 5 5
7 10 4 6 -3 13 1 16 10 6 16 -30 65 -48 65 -5 0 2 -11 16 -24 24 -22 37 -54
17 -42 -5 3 -18 -9 -29 -28 -16 -27 -25 -33 -41 -29 -12 3 -21 10 -21 15 0 5
9 7 19 3 15 -5 24 1 35 24 16 30 12 61 -7 61 -7 0 -7 -4 1 -12 17 -17 15 -33
-3 -18 -9 7 -13 20 -10 29 3 10 -3 21 -15 29 -11 7 -20 8 -20 3 0 -5 8 -12 17
-15 12 -5 14 -9 5 -18 -15 -15 -54 -18 -49 -4 2 6 13 10 23 8 18 -2 18 -2 1 8
-12 8 -16 18 -12 33 5 17 4 19 -4 7 -9 -12 -11 -12 -11 -1 0 8 8 20 18 27 16
13 16 14 -2 7 -13 -4 -17 -3 -12 5 4 7 3 12 -2 12 -5 0 -9 -11 -9 -25 0 -35
-10 -42 -30 -22 -9 9 -13 20 -9 24 4 4 12 1 17 -7 9 -12 10 -11 5 4 -4 10 -2
24 4 31 8 9 6 14 -6 19 -19 7 -34 0 -34 -17 0 -7 4 -6 10 3 5 8 12 11 16 7 4
-4 -1 -16 -11 -27 -14 -16 -15 -22 -5 -35 8 -9 8 -15 2 -15 -18 0 -25 22 -26
79 -1 52 -3 56 -26 57 -14 1 -33 -5 -42 -14 -25 -22 -22 -3 4 25 12 13 19 23
15 23 -13 0 -47 -45 -43 -57 3 -7 -15 -26 -40 -43 -46 -30 -59 -36 -50 -22 2
4 -4 13 -15 20 -11 7 -19 8 -19 2 0 -5 4 -10 9 -10 5 0 13 -9 16 -20 6 -20 7
-20 37 5 33 28 50 23 53 -15 1 -14 -3 -19 -12 -15 -8 3 -17 5 -19 5 -2 0 -4 5
-4 11 0 5 5 7 10 4 6 -3 10 -1 10 4 0 15 -11 14 -31 -5 -18 -16 -16 -44 3 -44
6 0 4 8 -3 17 -12 15 -12 16 4 10 10 -4 21 -7 23 -7 3 0 2 -5 -1 -10 -4 -6 3
-6 18 1 21 9 28 8 45 -9 11 -11 17 -24 14 -28 -4 -4 -1 -4 6 0 7 4 10 12 6 17
-3 5 0 16 6 25 10 11 16 12 26 3 8 -6 14 -16 14 -21 0 -6 -7 -5 -15 2 -9 7
-15 8 -15 2 0 -15 26 -22 39 -9 14 14 53 17 48 3 -2 -6 -11 -10 -20 -8 -22 4
-31 -16 -16 -35 11 -13 10 -18 -9 -34 l-23 -18 21 -21 c11 -11 20 -16 20 -12
0 4 -6 14 -12 21 -11 10 -9 16 8 30 19 15 20 19 6 39 -10 15 -11 22 -3 22 6 0
17 -11 23 -25 9 -21 8 -27 -6 -38 -17 -13 -13 -52 5 -41 5 3 9 -2 9 -11 0 -9
-4 -14 -8 -11 -5 3 -8 -5 -7 -17 2 -12 8 -21 14 -19 12 2 15 -11 4 -21 -3 -4
-15 1 -25 10 -18 16 -18 16 -12 -3 6 -15 4 -17 -6 -7 -10 9 -16 7 -29 -9 -15
-18 -18 -18 -30 -4 -13 15 -8 36 9 36 5 0 7 -8 3 -17 -5 -14 -3 -15 7 -6 15
14 4 35 -17 31 -9 -2 -18 2 -20 8 -5 14 34 11 48 -3 13 -13 39 -6 39 9 0 6 -6
5 -15 -2 -13 -11 -15 -9 -13 10 2 13 -3 24 -10 26 -7 1 -8 0 -2 -3 19 -9 10
-20 -15 -20 -24 0 -34 11 -17 20 4 2 0 2 -8 -1 -18 -6 -51 -5 -57 2 -3 2 1 14
7 26 6 12 9 25 5 28 -3 3 -8 -4 -12 -17 -4 -15 -11 -20 -21 -16 -19 7 -52 -23
-45 -41 3 -8 10 -14 15 -14 6 0 4 7 -3 16 -12 15 -11 16 11 10 18 -5 21 -5 10
3 -8 5 -11 13 -7 17 3 4 14 1 23 -7 14 -12 14 -14 -2 -26 -23 -17 -10 -17 17
0 17 10 22 9 39 -13 19 -25 18 -25 -1 -36 -20 -10 -20 -10 1 -29 20 -18 29
-62 10 -50 -6 3 -13 -1 -16 -9 -8 -21 -27 -20 -55 4 -28 23 -13 27 19 4 22
-15 28 -9 23 20 -1 5 6 5 16 2 16 -6 16 -5 -1 13 -18 19 -46 19 -46 -1 0 -6 6
-6 14 2 12 9 15 8 13 -9 -2 -25 -10 -26 -32 -4 -16 15 -15 18 7 35 l23 19 -28
-12 c-15 -7 -26 -19 -25 -27 2 -8 -3 -17 -10 -19 -6 -3 -10 1 -9 9 2 7 2 10 0
6 -9 -17 -20 -7 -20 17 0 25 11 34 20 15 3 -6 4 -5 3 2 -2 7 -13 12 -26 10
-19 -2 -21 0 -10 13 7 8 17 12 22 9 6 -4 5 3 -1 15 -13 23 -23 29 -15 8 8 -21
-24 -43 -44 -30 -18 11 -17 43 1 56 8 6 5 7 -6 3 -12 -4 -17 -2 -14 6 2 7 13
12 23 10 16 -2 15 1 -6 17 -14 11 -27 18 -29 15 -8 -8 -8 -63 1 -58 4 3 8 -2
8 -11 0 -9 -4 -14 -9 -10 -5 3 -13 -4 -16 -16 -5 -15 -10 -18 -15 -9 -5 8 -9
7 -14 -6 -4 -9 -2 -22 4 -28 8 -8 10 -7 5 4 -4 11 1 16 15 17 12 1 23 -4 26
-12 6 -14 -25 -69 -34 -61 -2 3 3 17 12 31 9 14 12 25 7 25 -5 0 -13 -9 -16
-20 -3 -11 -11 -20 -18 -20 -8 0 -8 -3 1 -12 7 -7 12 -17 12 -22 -1 -13 -40
32 -40 45 0 5 8 6 18 3 12 -4 13 -3 4 3 -26 19 -7 124 19 108 5 -4 9 -2 9 4 0
5 -4 11 -10 13 -5 2 -1 14 10 28 17 23 20 23 45 10 15 -8 32 -25 38 -38 10
-22 11 -22 31 -3 12 11 28 21 36 23 8 2 21 11 30 22 14 16 17 16 29 3 9 -12
10 -21 1 -36 -7 -14 -7 -21 0 -21 5 0 10 8 10 18 0 14 2 15 10 2 5 -8 10 -10
10 -4 0 6 -9 23 -21 38 -11 14 -16 26 -10 26 6 0 16 -9 23 -20 7 -11 17 -20
22 -20 4 0 3 6 -3 14 -9 11 -6 14 14 14 21 0 23 -3 14 -14 -10 -12 -9 -13 5
-8 10 4 15 13 12 21 -3 8 -6 17 -6 20 0 3 -8 -1 -17 -8 -15 -12 -16 -12 -9 5
7 19 6 19 -13 2 -18 -17 -20 -16 -37 13 -16 27 -19 28 -37 16 -11 -7 -27 -11
-36 -8 -13 4 -13 3 2 -7 23 -15 22 -26 -3 -33 -15 -4 -26 4 -43 29 -17 24 -27
30 -34 23 -15 -15 -85 -19 -80 -5 2 6 13 10 23 9 10 -1 13 0 7 3 -21 9 -14 22
12 22 25 0 34 -12 15 -21 -6 -3 -5 -4 2 -3 7 2 12 14 11 27 -3 23 -2 23 12 5
8 -11 15 -15 15 -9 0 5 -9 18 -20 28 -12 11 -18 26 -15 34 3 9 -3 5 -13 -7
-17 -22 -20 -23 -35 -7 -22 22 -21 30 4 32 17 2 18 -1 9 -13 -8 -9 -9 -14 -2
-14 18 0 20 24 4 43 -14 15 -14 19 0 35 16 18 14 42 -4 42 -6 0 -5 -7 3 -16
12 -15 11 -16 -9 -10 -14 5 -22 3 -22 -4 0 -6 5 -8 10 -5 6 3 10 2 10 -3 0 -8
-22 -22 -34 -22 -6 0 1 40 7 46 12 12 8 20 -13 21 -11 1 -22 -3 -26 -8z m64
-78 c2 -6 0 -11 -5 -10 -27 5 -31 -2 -16 -29 15 -27 53 -42 53 -21 0 6 5 7 10
4 8 -5 7 -11 -1 -21 -6 -7 -15 -11 -21 -8 -5 3 -20 -6 -33 -20 -18 -19 -20
-27 -11 -35 7 -6 16 -8 19 -4 4 3 7 1 7 -5 0 -7 5 -12 11 -12 5 0 8 4 4 9 -3
6 3 10 12 10 10 0 25 1 33 3 8 2 17 -1 19 -7 3 -5 15 -18 28 -28 18 -14 27
-16 43 -7 12 6 19 18 16 25 -5 15 20 29 35 19 14 -8 -5 -29 -58 -64 -53 -36
-63 -38 -37 -8 15 18 15 20 2 9 -15 -11 -22 -10 -48 9 -17 12 -37 19 -45 16
-8 -3 -27 5 -42 19 l-28 23 24 26 23 25 -20 29 c-26 36 -25 69 2 67 11 -1 22
-7 24 -14z m267 -31 c0 -33 -6 -54 -19 -69 -17 -19 -21 -20 -28 -6 -5 8 -16
15 -25 15 -9 0 -13 6 -10 14 3 7 0 19 -6 25 -15 15 39 68 68 68 17 0 20 -6 20
-47z m-486 -28 c-5 -29 3 -32 32 -12 16 12 32 20 35 17 6 -6 -50 -47 -65 -47
-5 0 -14 7 -19 15 -5 10 -15 13 -25 9 -9 -3 -14 -10 -11 -15 3 -5 -3 -9 -12
-9 -15 0 -15 3 4 23 20 21 63 34 61 19z m96 -32 c10 -11 24 -20 32 -20 17 0
16 -9 -5 -45 -18 -29 -18 -30 2 -47 12 -9 18 -19 14 -23 -3 -4 -16 3 -28 15
-15 15 -19 27 -14 43 5 12 7 25 6 30 -1 4 3 7 10 7 6 0 8 3 5 6 -4 4 -13 1
-22 -6 -18 -15 -20 0 -2 19 10 11 8 11 -10 0 -12 -7 -19 -17 -17 -21 9 -14 -9
-9 -28 9 -17 16 -24 9 -19 -19 0 -5 -3 -8 -9 -8 -5 0 -10 -5 -10 -11 0 -8 5
-8 15 1 11 9 15 9 15 1 0 -16 -29 -26 -42 -13 -7 7 -6 17 1 31 8 14 8 21 1 21
-5 0 -10 -8 -10 -17 -1 -17 -1 -17 -11 0 -5 9 -15 17 -22 17 -7 0 -6 -4 3 -10
8 -5 11 -12 7 -16 -7 -8 -37 14 -37 27 0 5 7 9 15 9 7 0 18 7 23 16 8 14 10
14 21 0 17 -21 31 -20 61 4 31 24 33 24 55 0z m-50 -50 c3 -6 17 -8 30 -6 22
4 23 3 12 -21 -9 -21 -8 -27 5 -37 16 -12 16 -14 1 -29 -10 -10 -13 -22 -8
-34 16 -35 15 -63 -3 -64 -46 -4 -76 1 -84 13 -7 9 -8 8 -4 -5 4 -11 1 -17 -7
-15 -7 2 -13 -1 -14 -7 -1 -5 4 -9 12 -7 7 1 25 -12 39 -29 15 -17 28 -30 29
-28 1 2 13 17 27 33 14 16 20 26 13 22 -6 -3 -14 -2 -18 4 -10 15 18 12 43 -6
12 -8 22 -10 22 -5 0 6 -5 11 -12 11 -9 0 -9 3 -1 11 6 6 9 18 6 27 -5 10 -2
13 6 8 7 -5 10 -14 7 -22 -3 -7 0 -16 6 -20 6 -4 8 -3 4 4 -3 6 -2 13 4 17 13
8 13 -11 -1 -37 -8 -15 -8 -19 0 -14 6 4 11 5 11 2 0 -2 3 -13 7 -23 6 -16 5
-16 -10 -4 -9 7 -17 11 -17 8 0 -3 -3 -12 -6 -20 -3 -8 2 -17 12 -21 14 -5 15
-4 4 9 -11 13 -8 14 18 11 27 -3 35 2 57 35 30 46 30 47 8 71 -9 10 -11 18 -5
18 6 0 17 -9 25 -20 8 -11 17 -17 20 -14 10 10 36 -16 31 -30 -3 -7 14 -25 39
-40 40 -25 44 -32 41 -63 -2 -25 2 -36 14 -40 21 -8 42 -35 36 -45 -7 -10 -24
-10 -23 0 5 28 -2 33 -23 18 -31 -22 -48 -19 -21 3 16 13 19 20 10 24 -7 3
-12 20 -11 41 1 20 -2 33 -7 30 -5 -3 -9 0 -9 5 0 6 -5 11 -11 11 -8 0 -8 -5
1 -15 15 -18 -1 -20 -18 -3 -9 9 -9 15 1 27 11 14 10 15 -7 1 -18 -14 -19 -13
-13 3 5 14 3 16 -12 8 -10 -6 -21 -7 -25 -4 -3 3 -6 1 -6 -6 0 -7 7 -11 15 -8
8 4 17 2 20 -2 2 -5 -4 -11 -15 -14 -11 -3 -20 -11 -20 -19 0 -9 2 -10 8 -1
12 19 44 19 56 1 8 -13 8 -23 0 -35 -12 -19 -44 -19 -56 0 -6 9 -8 8 -8 -1 0
-8 9 -16 20 -19 11 -3 17 -9 15 -14 -3 -4 -12 -6 -20 -2 -8 3 -15 -1 -15 -8 0
-7 3 -9 6 -6 12 11 41 -11 39 -30 -2 -27 -15 -45 -29 -40 -7 3 -18 -4 -24 -14
-7 -10 -17 -19 -24 -19 -6 0 -4 7 5 18 10 10 17 22 17 25 0 13 -65 107 -74
107 -5 0 -3 -6 3 -14 9 -11 6 -13 -14 -13 -21 0 -23 2 -14 13 10 12 9 13 -5 8
-18 -7 -18 -7 -10 -28 5 -13 9 -14 20 -5 15 13 17 9 8 -15 -3 -9 -10 -13 -15
-10 -5 3 -6 -1 -3 -9 6 -17 -21 -43 -31 -27 -3 5 -1 10 4 10 6 0 11 5 11 11 0
8 -5 7 -16 -2 -14 -11 -20 -9 -45 19 l-30 33 -25 -31 c-15 -17 -34 -29 -43
-28 -9 2 -15 -3 -13 -9 2 -14 -10 -17 -21 -6 -12 11 24 42 41 36 14 -5 15 -3
5 8 -10 10 -16 10 -25 1 -17 -17 -33 -15 -18 3 9 10 9 15 1 15 -6 0 -11 -5
-11 -12 0 -9 -3 -9 -12 0 -7 7 -16 12 -21 12 -5 0 1 -9 14 -19 13 -11 21 -23
17 -27 -9 -9 -86 -10 -95 -1 -7 8 16 37 29 37 6 0 5 -7 -2 -15 -7 -9 -8 -15
-2 -15 14 0 23 28 11 36 -5 3 -16 0 -24 -6 -10 -8 -15 -9 -15 -2 0 18 22 25
79 26 l56 1 0 45 0 45 -56 1 c-30 0 -60 3 -66 7 -15 10 -13 57 3 57 7 0 17 7
22 16 8 14 10 14 21 0 19 -22 34 -20 65 9 22 20 25 28 17 44 -8 14 -7 27 4 47
11 21 11 30 3 35 -7 4 -16 5 -20 3 -4 -3 -8 -1 -8 4 0 17 12 21 31 9 14 -9 21
-9 31 1 22 22 32 13 11 -10 -38 -43 -45 -65 -29 -96 12 -23 22 -29 48 -29 18
0 27 2 21 5 -7 2 -13 8 -13 14 0 6 8 7 17 4 15 -6 15 -5 -1 13 -18 19 -46 19
-46 -1 0 -6 6 -5 15 2 8 7 15 8 15 2 0 -12 -29 -37 -36 -29 -5 5 -8 44 -5 79
1 12 8 17 22 15 12 -1 24 5 26 13 4 13 3 13 -6 0 -5 -8 -14 -11 -18 -6 -4 4 3
17 17 29 14 11 18 18 8 14 -9 -3 -23 2 -34 14 -9 10 -12 19 -6 19 6 0 14 -5
17 -10z m591 -42 c13 -9 7 -48 -7 -48 -4 0 -14 9 -22 21 -14 19 -15 19 -13
-12 1 -22 8 -34 22 -39 11 -4 25 -14 32 -23 10 -12 9 -16 -4 -21 -9 -3 -14
-13 -11 -20 6 -16 -16 -40 -26 -29 -11 10 -8 25 3 18 6 -4 9 3 6 17 -2 18 -9
23 -29 22 -22 -1 -25 2 -17 16 5 9 9 30 8 46 -1 56 1 63 25 62 12 -1 27 -5 33
-10z m-376 -32 c0 -3 -4 -8 -10 -11 -5 -3 -10 -1 -10 4 0 6 5 11 10 11 6 0 10
-2 10 -4z m310 -6 c0 -5 -4 -10 -10 -10 -5 0 -10 5 -10 10 0 6 5 10 10 10 6 0
10 -4 10 -10z m170 0 c0 -5 -2 -10 -4 -10 -3 0 -8 5 -11 10 -3 6 -1 10 4 10 6
0 11 -4 11 -10z m-970 -46 c0 -8 -4 -13 -9 -10 -5 3 -12 -1 -15 -10 -6 -16
-26 -11 -26 7 0 6 4 8 9 5 5 -3 14 1 21 9 16 19 20 19 20 -1z m204 -20 c3 -8
-3 -11 -20 -8 -16 3 -23 1 -19 -6 3 -5 2 -10 -3 -10 -15 0 -22 13 -12 24 12
15 48 15 54 0z m516 -100 c0 -8 -4 -12 -10 -9 -5 3 -10 12 -10 19 0 8 -7 19
-15 26 -8 7 -15 18 -15 24 1 17 50 -43 50 -60z m77 29 c12 -24 11 -29 -14 -72
-4 -7 -33 21 -33 31 0 6 7 5 15 -2 9 -7 15 -8 15 -2 0 14 -28 23 -36 11 -3 -5
0 -16 6 -24 8 -10 9 -15 2 -15 -23 0 -36 60 -19 87 13 20 52 12 64 -14z m-541
8 c-8 -12 20 -22 42 -14 16 6 16 5 -1 -13 -17 -18 -18 -18 -44 9 -23 22 -25
27 -10 27 10 0 16 -4 13 -9z m34 -1 c0 -5 -4 -10 -10 -10 -5 0 -10 5 -10 10 0
6 5 10 10 10 6 0 10 -4 10 -10z m-302 -45 c12 -14 17 -25 12 -25 -10 0 -50 36
-50 45 0 12 18 3 38 -20z m740 -30 c14 -17 22 -21 30 -13 8 8 11 5 9 -11 -2
-27 -11 -27 -38 2 -16 16 -20 17 -16 5 4 -12 1 -16 -13 -15 -19 1 -19 3 -3 27
13 20 14 23 1 13 -14 -12 -28 -8 -28 7 0 16 42 6 58 -15z m202 15 c0 -5 -4
-10 -10 -10 -5 0 -10 5 -10 10 0 6 5 10 10 10 6 0 10 -4 10 -10z m-1057 -16
c21 -8 19 -32 -6 -59 -15 -16 -21 -17 -37 -7 -26 16 -39 15 -16 -1 16 -12 16
-14 2 -26 -9 -8 -20 -11 -23 -7 -4 4 -1 12 7 17 13 9 13 10 0 6 -24 -6 -18
-32 8 -30 24 3 25 0 24 -74 0 -24 4 -40 10 -37 5 3 7 11 5 17 -2 7 0 20 5 29
6 12 3 28 -7 47 -19 38 -19 38 5 44 23 6 43 -15 37 -40 -4 -16 -6 -15 -12 5
-4 12 -11 22 -17 22 -5 0 -3 -10 3 -22 16 -30 14 -29 31 -23 18 7 13 38 -8 56
-11 9 -11 13 1 26 9 8 12 19 9 25 -4 6 -1 9 7 6 8 -3 13 -21 14 -46 1 -32 8
-49 30 -72 34 -35 45 -37 52 -10 3 11 9 20 14 20 4 0 13 8 18 19 9 15 7 18 -7
17 -11 -1 -17 6 -17 19 0 11 7 20 15 20 8 0 21 4 28 9 7 4 20 2 30 -6 15 -12
16 -11 3 5 -23 29 8 52 68 52 l48 0 0 -35 0 -36 -53 1 c-60 0 -102 -23 -81
-45 10 -10 8 -12 -7 -6 -19 7 -19 6 -1 -14 10 -11 24 -20 30 -20 7 0 15 -7 19
-15 6 -17 26 -20 26 -4 0 5 -4 7 -10 4 -5 -3 -10 -2 -10 3 0 13 52 12 67 0 15
-12 36 -1 27 14 -5 7 -2 8 5 3 8 -4 24 4 43 21 l30 29 17 -21 c9 -12 27 -26
39 -33 12 -6 19 -17 16 -25 -6 -17 12 -31 21 -16 3 5 11 10 17 10 6 0 6 -6 -2
-15 -7 -9 -10 -18 -6 -22 3 -3 6 -1 6 5 0 7 4 12 9 12 5 0 9 -11 9 -25 0 -25
-12 -34 -21 -15 -3 6 -4 5 -3 -2 2 -7 14 -12 27 -11 24 3 24 3 4 -13 -16 -13
-17 -16 -3 -11 12 4 21 -1 28 -13 7 -14 7 -20 0 -20 -5 0 -10 5 -10 10 0 6 -5
10 -11 10 -8 0 -8 -4 0 -14 9 -11 6 -13 -14 -13 -21 0 -23 2 -14 13 10 12 9
13 -5 8 -18 -7 -18 -7 -10 -28 5 -13 9 -14 20 -5 8 7 14 7 14 1 0 -5 -7 -15
-15 -22 -20 -16 -19 -29 3 -37 9 -4 22 -13 27 -20 11 -14 49 -7 40 7 -3 4 4
10 15 13 11 3 20 11 20 19 0 10 -2 10 -9 -1 -10 -15 -85 -20 -99 -7 -13 13 55
65 77 59 24 -6 26 -14 9 -31 -17 -17 -33 -15 -18 3 9 10 9 15 1 15 -6 0 -11
-5 -11 -11 0 -5 -3 -8 -7 -6 -5 3 -13 -1 -20 -8 -17 -18 39 -14 61 4 9 8 17
12 19 10 32 -56 34 -64 10 -55 -10 4 -27 -3 -45 -21 l-29 -27 -25 27 c-29 32
-32 32 -56 10 -14 -12 -21 -14 -30 -5 -13 13 -4 42 13 42 8 0 8 -4 -1 -15 -9
-10 -9 -15 -1 -15 6 0 11 5 11 11 0 5 4 8 8 5 13 -8 13 46 0 62 -10 11 -8 18
9 31 17 14 18 20 8 34 -9 12 -14 14 -23 5 -9 -9 -15 -9 -23 -1 -13 13 -5 43
12 43 8 0 8 -4 -1 -15 -9 -10 -9 -15 -1 -15 6 0 11 5 11 11 0 5 5 7 10 4 6 -3
10 -2 10 2 0 5 -9 14 -20 21 -11 7 -17 18 -14 27 4 9 -1 18 -12 22 -11 4 -24
13 -29 20 -11 14 -49 7 -40 -7 3 -4 -4 -10 -15 -13 -11 -3 -20 -11 -20 -19 0
-10 2 -10 9 1 9 14 85 20 98 7 4 -3 -1 -14 -10 -23 -9 -9 -20 -13 -24 -9 -4 4
-2 11 5 15 8 5 1 8 -18 8 -24 0 -35 -7 -46 -29 -16 -31 -9 -53 29 -95 21 -24
11 -33 -11 -11 -10 10 -17 10 -31 1 -19 -12 -31 -8 -31 9 0 5 4 7 8 4 4 -2 13
-1 20 3 8 5 8 14 -3 35 -10 18 -12 33 -6 45 6 10 6 23 0 32 -7 11 -9 11 -9 0
0 -11 -4 -11 -21 1 -20 13 -24 12 -45 -9 -26 -25 -33 -43 -11 -24 11 8 14 4
14 -20 0 -29 -2 -30 -14 -13 -7 10 -13 14 -13 8 1 -13 25 -44 35 -44 5 0 5 3
2 7 -4 3 -2 12 4 20 9 9 8 13 0 13 -6 0 -11 4 -11 9 0 5 11 9 25 9 26 0 33
-13 13 -22 -7 -3 -4 -4 7 -3 14 1 21 -5 23 -21 2 -12 0 -22 -5 -21 -30 5 -35
-2 -18 -21 10 -11 16 -22 13 -25 -3 -3 -11 1 -17 9 -13 16 -41 11 -41 -6 0 -6
6 -5 15 2 15 12 22 0 8 -14 -5 -4 -9 -20 -9 -34 -1 -15 -2 -35 -3 -44 -1 -12
-8 -17 -23 -15 -15 1 -23 -3 -23 -13 0 -8 7 -15 15 -15 20 0 62 65 55 84 -11
27 -10 33 3 38 7 3 10 -1 6 -10 -6 -16 13 -34 24 -23 3 4 6 19 7 34 0 20 5 27
19 27 11 0 22 -7 24 -15 5 -13 3 -13 -11 -1 -11 9 -17 10 -17 2 0 -6 5 -11 10
-11 6 0 3 -11 -5 -24 -18 -27 -11 -51 28 -93 21 -24 11 -33 -11 -11 -10 10
-17 10 -32 0 -29 -18 -38 -14 -14 6 16 14 19 23 13 40 -11 29 -23 28 -37 -3
-6 -14 -8 -25 -3 -25 5 0 12 10 16 23 6 19 8 20 12 4 6 -23 -14 -48 -32 -41
-8 3 -24 -1 -37 -10 -26 -19 -17 -22 12 -4 16 11 22 9 39 -9 11 -11 18 -23 15
-26 -2 -2 2 -9 10 -16 11 -9 15 -8 19 3 4 10 1 13 -7 10 -9 -3 -13 3 -12 18 1
26 36 33 44 8 5 -13 3 -13 -11 -1 -10 7 -17 9 -17 3 0 -5 7 -13 16 -16 8 -3
12 -10 9 -16 -3 -5 -1 -10 5 -10 7 0 10 6 7 14 -7 19 12 36 32 29 9 -4 5 3 -9
14 -14 12 -21 25 -17 29 4 5 13 2 18 -6 9 -13 10 -13 6 0 -2 8 -14 14 -26 13
-11 -2 -21 3 -22 10 0 6 -2 23 -3 35 -3 30 24 65 53 67 11 1 21 1 21 -1 0 -12
-14 -34 -22 -34 -5 0 -6 5 -3 10 3 6 1 10 -5 10 -7 0 -9 -8 -4 -22 6 -20 5
-21 -10 -9 -9 7 -16 9 -16 3 0 -23 30 -20 50 5 22 28 28 15 8 -17 -10 -15 -9
-22 5 -38 16 -18 17 -20 1 -26 -12 -4 -14 -13 -10 -31 8 -32 -32 -76 -62 -68
-11 2 -23 0 -26 -6 -4 -6 -12 -11 -18 -11 -6 0 -8 3 -5 7 4 3 2 12 -4 19 -9
11 -14 10 -28 -7 -15 -19 -18 -20 -30 -5 -11 13 -11 19 -1 31 7 8 17 15 22 15
6 0 5 -7 -2 -15 -7 -9 -10 -18 -7 -21 9 -9 26 31 18 44 -5 9 -13 6 -29 -8 -12
-12 -22 -16 -22 -10 0 5 -5 10 -11 10 -8 0 -7 -5 1 -15 7 -9 10 -18 7 -21 -3
-3 -13 7 -23 23 -33 53 -46 64 -60 52 -7 -6 -18 -8 -23 -5 -11 7 -3 37 13 48
7 5 7 8 -2 8 -7 0 -15 -8 -19 -17 -9 -27 -34 -53 -44 -47 -11 6 -12 24 -1 23
18 -3 33 2 28 9 -3 5 1 18 9 29 10 15 23 19 45 17 20 -2 29 0 24 7 -3 6 -12 8
-20 5 -7 -3 -23 4 -36 14 -13 11 -18 19 -11 20 6 0 15 -4 18 -10 3 -5 12 -10
18 -10 7 0 4 5 -5 11 -9 5 -16 15 -14 22 1 6 1 9 -1 5 -9 -17 -20 -7 -20 17 0
25 11 34 20 15 3 -6 4 -5 3 2 -2 7 -14 12 -27 11 -24 -3 -24 -2 -4 13 15 12
16 15 4 12 -9 -2 -26 8 -37 22 -18 22 -23 23 -41 13 -22 -14 -39 -17 -28 -6 4
3 2 12 -4 20 -10 11 -14 10 -26 -7 -12 -17 -18 -19 -29 -9 -8 7 -12 19 -9 28
3 8 3 12 -1 8 -4 -4 -13 1 -19 10 -11 15 -15 15 -29 4 -18 -15 -22 -1 -5 16
12 12 39 6 51 -11 5 -7 8 -6 8 2 0 8 -9 16 -20 19 -11 3 -17 9 -15 14 3 4 12
6 20 2 8 -3 15 0 15 7 0 6 -4 9 -8 6 -5 -3 -18 2 -30 10 -21 15 -20 41 2 56 7
5 6 8 -2 8 -8 0 -16 -9 -19 -20 -3 -11 -9 -18 -13 -15 -20 12 -18 -28 2 -45
l22 -17 -22 -14 c-15 -9 -18 -17 -11 -26 8 -9 5 -11 -10 -10 -27 2 -26 11 2
38 16 16 17 20 5 16 -11 -4 -16 -1 -16 11 0 9 -3 26 -7 36 -6 13 -5 17 2 13
13 -8 47 28 39 42 -4 6 3 8 16 6 17 -3 27 3 41 26 10 18 22 28 30 25 6 -3 20
-9 30 -12z m977 12 c0 -3 -4 -8 -10 -11 -5 -3 -10 -1 -10 4 0 6 5 11 10 11 6
0 10 -2 10 -4z m233 -36 c11 0 17 -3 13 -7 -4 -5 -13 -8 -18 -8 -6 0 -13 -7
-15 -15 -3 -9 -1 -11 4 -5 4 6 17 11 28 10 24 0 28 -36 5 -43 -13 -5 -13 -3
-1 11 9 11 10 17 2 17 -6 0 -11 -5 -11 -11 0 -5 -4 -8 -8 -5 -4 2 -14 0 -22
-6 -13 -8 -12 -9 2 -5 25 9 41 -16 24 -38 -12 -17 -14 -17 -29 5 -10 14 -14
33 -11 47 4 16 1 25 -10 29 -16 6 -15 8 1 26 10 11 19 15 21 9 2 -6 13 -11 25
-11z m-484 -12 c-2 -13 0 -28 4 -34 4 -7 0 -17 -8 -24 -12 -10 -19 -10 -32 1
-16 13 -17 12 -4 -3 8 -11 9 -18 3 -18 -24 0 -24 24 1 46 14 12 23 24 20 27
-5 6 5 27 13 27 3 0 4 -10 3 -22z m320 3 c11 -7 9 -10 -8 -16 -12 -3 -19 -11
-16 -16 4 -5 -2 -9 -11 -9 -16 0 -16 1 -1 18 10 10 14 22 10 25 -9 10 10 8 26
-2z m246 -1 c-3 -5 -11 -10 -16 -10 -6 0 -7 5 -4 10 3 6 11 10 16 10 6 0 7 -4
4 -10z m-220 -58 c-6 -7 -35 18 -35 31 0 5 9 2 20 -8 11 -10 18 -20 15 -23z
m-240 -20 c-3 -3 2 -14 12 -24 15 -17 15 -18 -1 -18 -9 0 -15 4 -12 9 3 5 -1
11 -9 14 -10 4 -12 1 -8 -10 4 -10 2 -14 -4 -10 -6 4 -16 1 -22 -7 -9 -11 -8
-15 6 -21 10 -5 25 -9 33 -9 8 -1 15 -8 15 -17 0 -9 7 -24 14 -33 10 -12 11
-20 3 -28 -6 -6 -8 -17 -5 -24 3 -8 -1 -14 -11 -14 -9 0 -19 -6 -22 -13 -2 -7
-14 -13 -25 -14 -17 -2 -18 1 -9 12 7 8 16 12 21 9 5 -3 6 2 3 11 -5 11 -2 14
12 9 11 -3 15 -2 9 3 -16 13 -17 34 -3 52 11 14 11 14 -4 3 -10 -8 -19 -9 -22
-3 -4 5 3 12 14 16 11 4 17 11 14 17 -4 6 -10 5 -15 -3 -5 -8 -9 -10 -9 -5 0
6 -6 1 -14 -9 -12 -17 -17 -18 -41 -7 -14 7 -23 8 -20 2 3 -5 4 -10 1 -10 -2
0 -13 -3 -23 -7 -16 -6 -16 -5 -4 10 7 9 9 17 3 17 -5 0 -12 -6 -15 -14 -8
-19 26 -48 47 -40 10 4 16 1 16 -9 0 -9 5 -19 12 -23 8 -5 9 -2 5 9 -4 10 -10
23 -13 31 -9 22 34 28 46 6 7 -13 7 -21 0 -25 -5 -3 -10 1 -10 9 0 9 -5 16
-10 16 -7 0 -7 -7 0 -21 9 -15 8 -24 -1 -36 -12 -13 -15 -13 -29 3 -9 11 -22
20 -30 22 -8 2 -24 12 -36 23 -20 19 -21 19 -31 -3 -6 -13 -23 -30 -38 -38
-25 -13 -28 -13 -45 10 -11 14 -15 27 -10 28 6 2 10 8 10 13 0 6 -4 8 -9 5
-11 -7 -33 18 -25 27 4 4 -1 18 -10 33 -17 24 -18 25 -31 7 -8 -10 -15 -13
-15 -6 0 6 5 15 10 18 6 4 22 25 36 47 l26 40 25 -37 c27 -40 25 -65 -7 -62
-14 1 -19 6 -15 17 5 11 3 12 -5 4 -6 -6 -8 -19 -4 -28 5 -13 9 -14 14 -6 5 9
10 6 15 -10 l7 -22 23 22 c13 12 38 23 56 24 18 1 34 7 35 14 1 7 0 8 -3 2 -9
-18 -20 -10 -20 14 0 24 21 41 37 31 5 -3 7 -11 4 -19 -3 -7 7 -18 23 -24 l28
-13 -23 19 c-22 17 -23 20 -7 35 22 22 30 21 32 -4 2 -17 -1 -18 -13 -9 -8 8
-14 8 -14 2 0 -5 6 -12 14 -15 18 -7 62 38 47 48 -6 3 -11 11 -11 17 0 6 9 3
20 -7 11 -10 18 -20 15 -23z m509 0 c13 -17 15 -27 8 -34 -15 -15 -45 -1 -38
18 4 11 -1 18 -14 21 -27 7 -25 23 3 20 12 -1 30 -12 41 -25z m-1444 -7 c20
-24 6 -28 -15 -5 -10 11 -13 20 -8 20 6 0 16 -7 23 -15z m520 -25 c0 -5 -4
-10 -10 -10 -5 0 -10 5 -10 10 0 6 5 10 10 10 6 0 10 -4 10 -10z m-496 -56 c9
-22 -1 -33 -24 -27 -23 6 -25 14 -8 31 16 16 25 15 32 -4z m371 6 c-4 -7 3 -9
19 -6 17 3 23 1 20 -8 -5 -14 -32 -15 -52 -2 -13 8 -7 26 9 26 6 0 7 -5 4 -10z
m113 -2 c17 -17 15 -33 -3 -18 -9 7 -15 8 -15 2 0 -19 28 -20 46 -1 21 24 30
18 13 -9 -11 -18 -10 -24 5 -41 11 -12 14 -21 8 -21 -6 0 -17 8 -24 18 -15 20
-48 28 -48 12 0 -6 4 -9 8 -6 17 10 50 -23 45 -44 -3 -11 -9 -20 -13 -20 -13
0 -33 30 -26 37 4 4 12 1 17 -7 9 -13 10 -13 6 0 -2 8 -13 14 -23 13 -28 -3
-46 40 -31 72 14 28 18 30 35 13z m1012 8 c0 -3 -4 -8 -10 -11 -5 -3 -10 -1
-10 4 0 6 5 11 10 11 6 0 10 -2 10 -4z m-209 -46 c-7 -4 -11 -13 -9 -20 2 -7
-2 -14 -8 -17 -12 -4 -12 26 0 45 4 7 12 9 18 6 7 -4 6 -9 -1 -14z m199 -6 c0
-8 -4 -13 -9 -10 -16 11 -23 -28 -7 -40 9 -6 16 -17 16 -23 0 -6 -12 -1 -27
13 l-27 25 24 26 c28 29 30 30 30 9z m-663 -11 c-9 -9 -20 -13 -24 -9 -4 4 -1
11 7 16 25 16 35 11 17 -7z m-832 -33 c10 -11 14 -20 8 -20 -5 0 -18 9 -28 20
-10 11 -14 20 -8 20 5 0 18 -9 28 -20z m145 10 c0 -5 -2 -10 -4 -10 -3 0 -8 5
-11 10 -3 6 -1 10 4 10 6 0 11 -4 11 -10z m440 0 c0 -5 -9 -15 -19 -22 -17
-11 -18 -14 -4 -34 8 -13 13 -29 10 -36 -2 -7 -12 3 -22 23 -17 35 -17 37 1
57 21 23 34 27 34 12z m225 -21 c26 -18 55 -45 64 -60 10 -16 21 -26 24 -22 4
3 7 2 7 -4 0 -6 -7 -16 -15 -23 -8 -7 -15 -18 -15 -24 0 -19 -42 -52 -67 -54
-14 0 -23 5 -23 14 0 8 -7 17 -15 21 -14 5 -14 8 1 24 15 17 16 22 4 45 -17
31 -2 61 26 56 28 -6 29 -10 8 -35 l-20 -22 23 -22 c23 -22 34 -18 11 5 -9 9
-9 12 -1 12 17 0 28 -21 25 -50 -2 -22 -1 -21 12 8 13 28 13 36 1 65 -12 26
-14 28 -15 10 0 -12 5 -25 10 -28 6 -3 10 -12 10 -18 -1 -7 -9 -2 -19 10 -14
16 -21 19 -30 10 -18 -18 -13 5 7 26 16 19 16 20 -2 31 -27 16 -72 55 -64 56
4 0 28 -14 53 -31z m302 14 c6 4 20 -7 32 -23 12 -17 17 -30 12 -30 -6 0 -15
9 -21 21 -7 11 -18 18 -25 15 -15 -5 -39 17 -28 28 4 3 10 1 14 -5 4 -6 11 -9
16 -6z m257 8 c3 -4 -1 -17 -9 -27 -13 -18 -14 -19 -47 -1 -33 18 -33 18 -10
0 21 -17 22 -21 8 -32 -9 -8 -16 -20 -16 -28 0 -8 -5 -11 -11 -8 -5 4 -8 12
-6 18 2 6 -6 19 -17 28 -19 16 -19 16 7 34 25 16 29 16 52 1 24 -16 31 -12 26
17 -1 10 17 9 23 -2z m126 -1 c0 -5 -4 -10 -10 -10 -5 0 -10 5 -10 10 0 6 5
10 10 10 6 0 10 -4 10 -10z m-1345 -39 c3 -5 1 -12 -5 -16 -5 -3 -10 1 -10 9
0 18 6 21 15 7z m-46 -22 c4 -12 2 -12 -12 0 -14 11 -17 11 -18 0 -1 -8 -1
-17 0 -21 1 -10 -13 -10 -22 -1 -9 9 24 44 37 40 5 -2 12 -10 15 -18z m1298
-12 c4 -6 8 -29 8 -49 1 -41 48 -103 72 -94 21 8 15 -13 -11 -39 -25 -25 -72
-25 -62 1 3 8 0 11 -8 8 -9 -3 -13 3 -12 18 1 26 36 33 44 8 5 -13 3 -13 -11
-1 -10 7 -17 9 -17 3 0 -5 7 -13 16 -16 8 -3 12 -10 9 -16 -3 -5 -1 -10 5 -10
7 0 10 6 7 14 -3 7 -1 18 4 23 6 6 0 14 -16 23 -22 12 -27 11 -45 -5 -11 -10
-20 -13 -20 -7 0 7 9 17 19 24 15 9 17 16 9 34 -6 13 -15 21 -19 18 -14 -8
-10 9 6 30 15 20 11 41 -6 31 -5 -4 -9 -1 -9 4 0 6 -5 11 -11 11 -8 0 -8 -4 0
-14 7 -8 8 -16 4 -18 -4 -3 -2 -3 5 -1 8 1 12 -2 10 -8 -2 -6 -7 -10 -11 -10
-4 1 -13 1 -20 1 -20 0 -18 58 2 63 19 4 47 -8 58 -26z m-985 -19 c-7 -7 -12
-8 -12 -2 0 6 3 14 7 17 3 4 9 5 12 2 2 -3 -1 -11 -7 -17z m903 2 c-4 -14 -1
-22 11 -27 21 -8 54 -40 54 -51 0 -5 -9 -17 -20 -27 l-21 -19 23 -13 c13 -7
19 -12 14 -13 -14 0 25 -40 39 -40 7 0 20 -11 29 -25 9 -14 12 -25 6 -25 -5 0
-10 -5 -10 -12 0 -6 3 -8 7 -5 9 10 34 -13 27 -25 -3 -5 0 -15 6 -23 13 -15 0
-21 -14 -7 -4 4 -13 7 -19 7 -5 0 -12 6 -15 13 -2 7 2 10 12 6 9 -3 16 -1 16
6 0 6 -4 9 -9 6 -12 -8 -34 20 -27 33 3 5 3 16 0 24 -5 14 -10 13 -37 -4 -18
-10 -35 -19 -38 -19 -12 0 -17 38 -6 49 17 17 31 13 17 -4 -7 -9 -10 -18 -6
-22 3 -3 6 -1 6 5 0 6 6 9 14 6 8 -3 17 -1 21 5 4 7 -1 8 -12 4 -10 -3 -15 -3
-11 2 4 4 3 14 -3 21 -9 11 -15 9 -30 -9 -23 -27 -25 -15 -3 18 9 14 12 25 7
25 -5 0 -15 -11 -21 -25 -17 -38 10 -89 41 -79 35 10 39 10 44 -4 3 -8 -2 -10
-14 -6 -11 4 -14 3 -6 -3 15 -11 25 -63 12 -63 -5 0 -9 -5 -9 -11 0 -8 4 -8
14 0 11 9 14 6 14 -14 0 -21 -3 -23 -14 -14 -12 10 -13 9 -8 -5 7 -18 7 -18
28 -10 13 5 14 9 5 20 -9 12 -8 14 7 11 11 -1 25 -7 33 -11 9 -6 12 -5 7 2 -3
6 -2 13 4 17 18 11 11 -22 -11 -46 l-20 -24 6 25 c4 14 3 20 -2 14 -4 -6 -17
-16 -28 -23 -14 -9 -15 -11 -3 -7 10 3 20 1 23 -4 10 -16 -7 -37 -31 -37 -25
0 -33 12 -11 20 9 4 9 6 0 6 -16 1 -24 -14 -17 -33 5 -13 9 -14 20 -5 8 6 14
7 14 2 0 -11 -21 -33 -31 -33 -7 0 -22 40 -20 54 1 5 -9 2 -23 -7 -14 -9 -27
-13 -30 -8 -3 5 3 11 14 14 11 3 20 11 20 19 0 8 -3 9 -8 2 -15 -22 -41 -23
-56 -2 -8 12 -13 25 -10 30 3 4 0 8 -6 8 -7 0 -10 -7 -7 -15 4 -8 2 -17 -2
-20 -5 -2 -11 4 -14 15 -3 11 -11 20 -19 20 -8 0 -9 -3 -2 -8 27 -18 20 -62
-10 -62 -6 0 -5 5 2 12 7 7 12 15 12 19 0 10 -70 50 -71 41 -5 -28 -4 -60 3
-56 4 3 8 -2 8 -11 0 -9 -4 -13 -10 -10 -9 6 -14 -8 -11 -28 1 -5 -9 -7 -21
-5 -15 2 -23 10 -23 23 0 25 14 47 26 39 5 -3 9 -1 9 5 0 5 -4 11 -10 13 -5 2
0 14 10 28 17 22 22 23 40 12 12 -7 27 -9 38 -4 9 4 24 7 32 6 8 -1 23 -2 32
-3 12 -1 17 -8 15 -23 -2 -26 24 -32 30 -8 4 13 3 13 -6 0 -5 -8 -13 -11 -17
-7 -4 3 -1 14 7 23 12 14 14 14 26 -2 17 -23 17 -10 1 17 -11 17 -10 22 4 33
10 7 15 16 11 19 -3 4 -1 7 5 7 7 0 12 -6 12 -12 0 -7 5 -5 11 5 12 21 -6 51
-27 43 -8 -3 -26 14 -44 40 -30 46 -36 59 -22 50 4 -2 13 4 20 15 7 11 8 19 2
19 -5 0 -10 -4 -10 -9 0 -5 -9 -13 -21 -16 l-21 -7 20 -21 c11 -12 22 -29 24
-37 2 -8 11 -21 22 -30 16 -14 16 -17 3 -29 -12 -9 -21 -10 -36 -1 -12 6 -21
7 -21 3 0 -5 13 -14 29 -20 23 -8 29 -15 24 -32 -6 -25 -6 -25 -44 -6 -21 11
-34 13 -48 6 -10 -6 -22 -7 -26 -3 -5 4 -5 1 -1 -5 7 -13 -6 -18 -17 -6 -11
10 13 32 29 26 7 -3 16 2 20 10 5 13 10 13 40 -5 19 -11 34 -16 34 -11 0 5
-13 14 -29 20 -24 9 -29 15 -24 32 3 14 11 20 19 17 8 -3 21 -9 31 -13 11 -4
14 -3 9 5 -4 7 -14 12 -23 12 -10 0 -13 6 -9 16 8 21 -21 55 -40 47 -8 -3 -14
-10 -14 -15 0 -6 6 -5 15 2 16 14 18 10 9 -14 -3 -9 -10 -13 -15 -10 -5 3 -4
-7 3 -21 10 -23 10 -29 -5 -40 -9 -6 -14 -14 -11 -17 2 -3 -7 -5 -21 -5 -14 0
-25 5 -25 13 0 7 -5 16 -12 20 -8 5 -9 2 -5 -9 4 -10 10 -23 13 -31 8 -20 -31
-26 -56 -9 -11 8 -18 19 -15 24 4 5 1 9 -5 9 -7 0 -9 -8 -4 -22 6 -20 5 -21
-10 -9 -10 9 -16 10 -16 2 0 -11 13 -15 39 -11 13 1 13 -1 2 -14 -9 -11 -10
-16 -2 -16 6 0 11 5 11 10 0 6 5 10 10 10 7 0 7 -6 0 -20 -7 -12 -16 -17 -28
-13 -14 5 -13 2 3 -11 20 -16 20 -16 -4 -13 -13 1 -25 -4 -27 -11 -1 -7 0 -8
3 -2 9 19 21 10 21 -15 0 -24 -12 -34 -21 -17 -2 4 -2 1 -1 -6 2 -7 -2 -12 -9
-11 -6 1 -19 1 -27 0 -13 -1 -13 -3 -1 -10 9 -6 22 -6 32 0 12 6 27 4 45 -6
29 -15 50 -4 37 19 -4 5 0 7 8 4 10 -4 15 1 16 15 1 11 8 24 15 30 9 6 8 7 -5
3 -12 -4 -17 -2 -14 6 4 12 35 13 46 2 2 -2 -4 -13 -14 -24 -15 -16 -16 -23
-6 -33 10 -9 11 -8 5 8 -6 16 -4 18 6 8 10 -9 16 -7 29 9 15 18 18 18 30 4 11
-13 10 -19 -7 -40 -14 -19 -22 -22 -30 -14 -19 19 -45 18 -67 -1 -20 -19 -97
-24 -123 -7 -15 9 -32 -1 -32 -20 0 -8 -4 -13 -9 -10 -5 3 -11 -1 -15 -9 -7
-19 3 -47 15 -39 5 3 9 -3 9 -13 0 -15 -5 -13 -27 10 l-27 27 28 29 c16 16 25
34 21 40 -3 7 -3 10 2 9 11 -3 53 25 53 35 0 4 -4 5 -10 2 -5 -3 -10 -1 -10 4
0 6 -5 11 -11 11 -8 0 -8 -5 1 -15 9 -11 9 -15 1 -15 -17 0 -26 29 -13 42 8 8
15 8 24 0 11 -8 17 -7 25 7 9 14 7 20 -8 29 -30 19 -22 34 9 16 l27 -16 -23
19 c-22 18 -23 21 -7 36 9 9 12 17 7 17 -6 0 -19 -12 -30 -27 -19 -27 -19 -27
2 -44 11 -10 18 -20 14 -24 -8 -8 -42 24 -51 49 -4 10 -13 16 -21 13 -16 -6
-40 16 -29 26 10 11 25 8 18 -3 -3 -5 -1 -10 4 -10 13 0 14 10 3 27 -11 17
-44 -10 -36 -31 8 -20 -23 -33 -39 -17 -9 10 -8 16 7 27 11 8 16 14 11 14 -5
0 -17 -7 -27 -17 -10 -9 -18 -11 -18 -5 0 6 9 17 20 25 17 12 18 16 7 26 -8 6
-17 8 -20 4 -4 -3 -7 -1 -7 5 0 6 5 14 10 17 6 4 8 9 6 13 -6 10 16 37 37 45
13 5 16 13 12 27 -3 11 -2 20 3 20 16 0 22 -41 6 -47 -10 -4 -9 -9 9 -24 27
-22 10 -25 -21 -3 -21 15 -28 10 -23 -18 0 -5 -4 -8 -10 -8 -8 0 -8 -4 1 -14
12 -16 40 -11 40 6 0 6 -6 6 -14 -2 -12 -9 -15 -8 -13 9 2 25 10 26 32 4 16
-15 15 -18 -7 -35 l-23 -19 28 12 c15 7 26 19 25 27 -2 8 3 17 10 19 6 3 10
-1 9 -9 -2 -7 -2 -10 0 -5 9 16 21 6 21 -18 0 -25 -12 -34 -21 -15 -3 6 -4 5
-3 -2 2 -7 13 -12 26 -10 19 2 21 0 10 -13 -7 -8 -16 -12 -21 -9 -5 3 -6 -2
-3 -10 5 -12 11 -9 31 15 16 19 32 28 42 25 11 -4 9 -1 -4 10 -11 8 -19 22
-17 30 2 8 -1 14 -5 14 -5 0 -9 -9 -10 -20 -1 -11 3 -20 8 -20 6 0 7 -5 3 -11
-4 -8 -9 -8 -17 0 -17 17 -16 53 3 58 24 6 43 40 26 46 -7 3 -19 1 -27 -5 -11
-8 -10 -9 4 -4 11 4 17 2 15 -5 -2 -6 -7 -10 -12 -9 -5 1 -13 -5 -18 -14 -5
-9 -13 -16 -19 -16 -5 0 -4 9 3 20 10 15 10 22 0 32 -6 6 -12 20 -12 30 0 10
-4 18 -10 18 -5 0 -7 -6 -4 -14 3 -8 1 -17 -5 -21 -6 -3 -11 -2 -11 4 0 5 -2
15 -5 23 -3 7 6 18 21 25 21 10 30 9 48 -3 25 -16 33 -10 70 50 l18 28 24 -35
c13 -20 24 -40 24 -44 0 -11 -37 -43 -50 -43 -6 0 -10 -5 -10 -10 0 -7 7 -7
21 0 15 9 24 8 36 -1 13 -12 13 -15 -3 -29 -11 -9 -20 -22 -22 -30 -2 -8 -13
-25 -24 -37 l-20 -21 21 -7 c12 -3 21 -13 21 -21 0 -8 5 -14 10 -14 7 0 7 7 0
21 -9 15 -8 24 1 36 12 13 15 13 29 -5 14 -16 20 -18 37 -8 19 10 20 13 7 30
-10 14 -14 16 -14 5 0 -12 -2 -12 -11 1 -9 13 -10 13 -6 0 2 -8 10 -14 16 -13
6 2 11 -2 11 -7 0 -13 -23 -13 -37 1 -17 17 -4 51 18 44 11 -4 19 -3 19 2 0
19 -41 11 -49 -9 -4 -12 -11 -17 -14 -11 -10 16 21 52 40 47 10 -3 27 2 38 11
11 8 14 13 5 10 -17 -5 -57 21 -47 31 3 3 20 7 38 8 18 1 34 7 35 14 1 7 0 8
-3 2 -9 -19 -20 -10 -20 15 0 24 11 34 20 18 2 -5 2 -2 0 5 -1 8 3 12 9 9 7
-2 12 -11 10 -21 -2 -9 2 -16 9 -16 7 0 0 -11 -15 -25 -15 -14 -23 -25 -18
-25 5 0 17 9 27 20 11 12 26 18 34 15 9 -3 5 3 -7 13 -22 17 -23 20 -7 35 22
22 30 21 32 -4 2 -17 -1 -18 -13 -9 -8 8 -14 8 -14 2 0 -20 28 -20 46 -1 17
18 17 19 1 13 -10 -3 -17 -3 -16 2 5 29 -1 35 -23 20 -31 -22 -48 -19 -21 3
19 16 20 20 7 25 -8 3 -13 2 -10 -3 3 -5 -1 -14 -9 -21 -12 -10 -19 -10 -32 1
-16 13 -17 12 -4 -3 8 -11 9 -18 3 -18 -6 0 -14 5 -17 11 -10 14 26 51 43 44
8 -3 16 3 19 15 3 11 10 20 15 20 5 0 6 -9 3 -20z m302 0 c1 -11 -1 -19 -5
-19 -27 4 -30 -3 -15 -29 15 -27 53 -42 53 -21 0 6 5 7 10 4 15 -10 -8 -35
-25 -29 -7 3 -18 -4 -25 -15 -6 -12 -16 -21 -22 -21 -6 0 -3 9 7 20 16 18 16
20 -4 46 -25 31 -27 52 -6 60 8 4 12 10 9 15 -3 5 1 9 8 9 8 0 14 -9 15 -20z
m-629 -53 c9 -7 3 -16 -23 -34 -40 -27 -65 -25 -62 7 1 14 6 19 17 15 11 -5
12 -3 3 6 -12 12 -37 3 -28 -11 3 -5 1 -11 -5 -15 -19 -12 -10 29 11 51 20 22
23 22 48 7 14 -9 32 -21 39 -26z m-328 13 c0 -5 -4 -10 -10 -10 -5 0 -10 5
-10 10 0 6 5 10 10 10 6 0 10 -4 10 -10z m-320 -50 c0 -5 -4 -10 -10 -10 -5 0
-10 5 -10 10 0 6 5 10 10 10 6 0 10 -4 10 -10z m256 -51 c19 -22 19 -22 -3
-10 -13 6 -23 16 -23 21 0 15 5 12 26 -11z m304 1 c0 -5 -5 -10 -11 -10 -5 0
-7 5 -4 10 3 6 8 10 11 10 2 0 4 -4 4 -10z m107 -46 c9 -23 -13 -40 -32 -24
-12 10 -13 16 -4 26 15 18 28 18 36 -2z m208 6 c3 -5 -1 -10 -10 -10 -9 0 -13
5 -10 10 3 6 8 10 10 10 2 0 7 -4 10 -10z m-755 -50 c0 -5 -2 -10 -4 -10 -3 0
-8 5 -11 10 -3 6 -1 10 4 10 6 0 11 -4 11 -10z m180 0 c0 -5 -4 -10 -10 -10
-5 0 -10 5 -10 10 0 6 5 10 10 10 6 0 10 -4 10 -10z m150 0 c0 -5 -4 -10 -10
-10 -5 0 -10 5 -10 10 0 6 5 10 10 10 6 0 10 -4 10 -10z m490 1 c0 -5 -7 -14
-15 -21 -16 -14 -18 -10 -9 14 6 17 24 22 24 7z m140 -1 c0 -5 -2 -10 -4 -10
-3 0 -8 5 -11 10 -3 6 -1 10 4 10 6 0 11 -4 11 -10z m-1100 -15 c7 -8 8 -15 2
-15 -5 0 -15 7 -22 15 -7 8 -8 15 -2 15 5 0 15 -7 22 -15z m345 -25 c-10 -11
-20 -18 -23 -15 -7 6 18 35 31 35 5 0 2 -9 -8 -20z m480 0 c-10 -11 -20 -18
-23 -15 -7 6 18 35 31 35 5 0 2 -9 -8 -20z m-680 1 c3 -5 1 -12 -5 -16 -5 -3
-10 1 -10 9 0 18 6 21 15 7z m355 5 c0 -3 -4 -8 -10 -11 -5 -3 -10 -1 -10 4 0
6 5 11 10 11 6 0 10 -2 10 -4z m605 -5 c3 -5 1 -12 -5 -16 -5 -3 -10 1 -10 9
0 18 6 21 15 7z m-1006 -22 c4 -12 2 -12 -12 0 -14 11 -17 11 -18 0 -1 -8 -1
-17 0 -21 1 -10 -13 -10 -22 -1 -9 9 24 44 37 40 5 -2 12 -10 15 -18z m206 12
c-3 -5 4 -12 15 -16 20 -6 27 -29 11 -39 -5 -3 -14 1 -21 9 -7 8 -9 15 -5 15
5 0 0 9 -10 20 -17 19 -17 20 -1 20 9 0 15 -4 11 -9z m754 -12 c3 -12 2 -12
-12 -1 -13 11 -16 10 -22 -8 -3 -11 -11 -18 -16 -14 -13 7 20 46 35 41 5 -2
12 -10 15 -18z m55 -16 c4 -5 13 -8 19 -8 5 0 12 -5 14 -11 6 -18 -26 -12 -44
8 -15 17 -5 27 11 11z m-559 -68 c1 -11 -4 -24 -10 -28 -6 -5 -4 -7 5 -4 8 2
15 9 15 15 0 5 3 14 8 18 4 4 7 -2 7 -12 0 -11 -5 -25 -11 -31 -14 -14 -52 -4
-45 12 2 7 0 17 -6 23 -6 6 -7 15 -3 22 11 18 40 7 40 -15z m305 -9 c0 -3 -4
-8 -10 -11 -5 -3 -10 -1 -10 4 0 6 5 11 10 11 6 0 10 -2 10 -4z m326 -35 c-9
-14 -33 -14 -41 -1 -4 6 -1 18 6 26 11 13 14 13 27 0 8 -8 11 -19 8 -25z
m-216 -6 c20 -24 6 -28 -15 -5 -10 11 -13 20 -8 20 6 0 16 -7 23 -15z m-280
-125 c0 -5 -4 -10 -10 -10 -5 0 -10 5 -10 10 0 6 5 10 10 10 6 0 10 -4 10 -10z
m260 0 c0 -5 -4 -10 -10 -10 -5 0 -10 5 -10 10 0 6 5 10 10 10 6 0 10 -4 10
-10z m-50 -19 c0 -5 -7 -12 -16 -15 -24 -9 -28 -7 -14 9 14 17 30 20 30 6z
m-80 -31 c0 -5 -2 -10 -4 -10 -3 0 -8 5 -11 10 -3 6 -1 10 4 10 6 0 11 -4 11
-10z"/>
<path d="M4940 5710 c-8 -5 -12 -12 -9 -15 4 -3 12 1 19 10 14 17 11 19 -10 5z"/>
<path d="M4960 5680 c20 -13 33 -13 25 0 -3 6 -14 10 -23 10 -15 0 -15 -2 -2
-10z"/>
<path d="M5115 5860 c-3 -5 -1 -10 4 -10 6 0 11 5 11 10 0 6 -2 10 -4 10 -3 0
-8 -4 -11 -10z"/>
<path d="M5098 5838 c14 -17 13 -38 -3 -51 -6 -5 -4 -7 5 -4 8 2 15 9 15 15 0
5 3 14 8 18 13 13 8 -31 -5 -45 -11 -11 -9 -11 8 -1 27 16 21 43 -15 66 -21
14 -24 15 -13 2z"/>
<path d="M5075 5820 c-3 -5 -1 -10 4 -10 6 0 11 5 11 10 0 6 -2 10 -4 10 -3 0
-8 -4 -11 -10z"/>
<path d="M4720 5760 c-13 -8 -13 -10 2 -10 9 0 20 5 23 10 8 13 -5 13 -25 0z"/>
<path d="M4736 5635 c-10 -8 -23 -12 -27 -9 -5 3 -9 1 -9 -5 0 -16 37 -8 49
11 13 21 12 22 -13 3z"/>
<path d="M4938 5503 c-30 -35 -39 -62 -28 -83 8 -14 8 -26 0 -40 -8 -14 -7
-26 1 -42 24 -46 59 -74 59 -47 0 5 -4 7 -10 4 -5 -3 -10 -2 -10 4 0 5 6 12
13 15 6 3 2 3 -10 0 -25 -6 -25 -8 -25 86 0 94 0 92 25 86 12 -3 16 -3 10 0
-7 3 -13 10 -13 15 0 6 5 7 10 4 6 -3 10 -1 10 4 0 16 -15 13 -32 -6z"/>
<path d="M4593 5483 c-22 -23 -18 -34 5 -11 9 9 12 9 12 0 0 -7 5 -12 11 -12
8 0 8 5 -1 15 -15 18 1 20 18 3 9 -9 15 -9 25 1 10 11 9 13 -3 9 -8 -3 -22 0
-30 6 -12 10 -19 8 -37 -11z"/>
<path d="M4541 5483 c12 -15 12 -16 -6 -9 -15 5 -17 4 -8 -5 6 -6 16 -8 22 -5
12 8 3 36 -11 36 -6 0 -4 -8 3 -17z"/>
<path d="M4570 5489 c0 -5 5 -7 10 -4 6 3 10 8 10 11 0 2 -4 4 -10 4 -5 0 -10
-5 -10 -11z"/>
<path d="M4784 5475 c11 -8 22 -12 25 -9 6 6 -19 24 -34 24 -5 -1 -1 -7 9 -15z"/>
<path d="M4661 5461 c-7 -5 -9 -11 -4 -14 10 -7 11 -77 0 -93 -4 -7 0 -15 9
-18 19 -7 34 1 33 17 0 9 -2 9 -6 0 -8 -22 -20 -14 -20 12 0 26 12 34 20 13 2
-7 4 3 4 22 0 19 -2 29 -4 23 -8 -22 -20 -14 -20 12 0 25 11 34 20 15 3 -6 4
-5 3 2 -3 16 -18 20 -35 9z"/>
<path d="M4746 5454 c-5 -14 -4 -15 8 -5 11 9 14 7 14 -14 0 -20 -3 -23 -14
-14 -9 7 -14 8 -14 1 0 -6 6 -13 13 -16 10 -5 10 -7 0 -12 -7 -3 -13 -10 -13
-16 0 -7 5 -6 14 1 11 9 14 6 14 -14 0 -21 -3 -23 -14 -14 -12 10 -13 9 -8 -5
4 -10 13 -15 21 -12 8 3 17 6 20 6 3 0 -1 8 -8 17 -12 15 -12 16 5 9 19 -7 19
-6 1 14 -18 19 -18 21 0 40 18 20 18 21 -1 14 -16 -7 -17 -6 -6 8 10 13 10 17
-4 22 -21 8 -21 8 -28 -10z"/>
<path d="M4710 5430 c0 -5 5 -10 10 -10 6 0 10 5 10 10 0 6 -4 10 -10 10 -5 0
-10 -4 -10 -10z"/>
<path d="M4855 5430 c-3 -5 -1 -10 4 -10 6 0 11 5 11 10 0 6 -2 10 -4 10 -3 0
-8 -4 -11 -10z"/>
<path d="M4885 5400 c0 -15 3 -26 8 -23 4 2 7 13 7 23 0 10 -3 21 -7 23 -5 3
-8 -8 -8 -23z"/>
<path d="M4795 5410 c-9 -15 4 -30 20 -23 8 3 15 9 15 13 0 12 -29 20 -35 10z"/>
<path d="M4964 5409 c-10 -17 13 -36 27 -22 12 12 4 33 -11 33 -5 0 -12 -5
-16 -11z m26 -9 c0 -5 -4 -10 -10 -10 -5 0 -10 5 -10 10 0 6 5 10 10 10 6 0
10 -4 10 -10z"/>
<path d="M4710 5400 c0 -5 5 -10 10 -10 6 0 10 5 10 10 0 6 -4 10 -10 10 -5 0
-10 -4 -10 -10z"/>
<path d="M4840 5400 c0 -5 5 -10 10 -10 6 0 10 5 10 10 0 6 -4 10 -10 10 -5 0
-10 -4 -10 -10z"/>
<path d="M4710 5370 c0 -5 5 -10 10 -10 6 0 10 5 10 10 0 6 -4 10 -10 10 -5 0
-10 -4 -10 -10z"/>
<path d="M4784 5325 c-10 -8 -14 -14 -9 -15 15 0 40 18 34 24 -3 3 -14 -1 -25
-9z"/>
<path d="M4570 5310 c0 -5 5 -10 11 -10 5 0 7 5 4 10 -3 6 -8 10 -11 10 -2 0
-4 -4 -4 -10z"/>
<path d="M5286 5667 c3 -10 9 -15 12 -12 3 3 0 11 -7 18 -10 9 -11 8 -5 -6z"/>
<path d="M5286 5581 c-3 -5 1 -11 9 -14 9 -4 12 -1 8 9 -6 16 -10 17 -17 5z"/>
<path d="M5185 5509 c-4 -6 -5 -12 -2 -15 2 -3 7 2 10 11 7 17 1 20 -8 4z"/>
<path d="M5205 5500 c-3 -5 -1 -10 4 -10 6 0 11 5 11 10 0 6 -2 10 -4 10 -3 0
-8 -4 -11 -10z"/>
<path d="M4266 5418 c-14 -19 -14 -23 2 -34 12 -9 19 -9 24 -1 4 6 5 14 2 18
-2 4 1 10 6 12 6 3 5 4 -2 3 -7 -2 -12 -9 -10 -15 1 -6 -2 -11 -8 -11 -14 0
-13 23 2 38 7 7 9 12 6 12 -4 0 -14 -10 -22 -22z"/>
<path d="M4536 5414 c-10 -26 4 -43 27 -35 12 5 22 14 22 21 0 20 -42 32 -49
14z m44 -14 c0 -5 -9 -10 -20 -10 -11 0 -20 5 -20 10 0 6 9 10 20 10 11 0 20
-4 20 -10z"/>
<path d="M4610 5400 c0 -5 5 -10 10 -10 6 0 10 5 10 10 0 6 -4 10 -10 10 -5 0
-10 -4 -10 -10z"/>
<path d="M4455 5360 c-3 -5 -1 -10 4 -10 6 0 11 5 11 10 0 6 -2 10 -4 10 -3 0
-8 -4 -11 -10z"/>
<path d="M4485 5360 c-3 -5 -2 -10 4 -10 5 0 13 5 16 10 3 6 2 10 -4 10 -5 0
-13 -4 -16 -10z"/>
<path d="M4462 5292 c-7 -5 -7 -12 2 -24 9 -13 15 -14 28 -4 15 11 15 13 -1
23 -10 6 -23 8 -29 5z m23 -12 c3 -5 1 -10 -4 -10 -6 0 -11 5 -11 10 0 6 2 10
4 10 3 0 8 -4 11 -10z"/>
<path d="M4320 5270 c-14 -10 -21 -22 -17 -26 4 -4 7 -2 7 5 0 7 5 9 10 6 6
-4 8 -10 5 -15 -3 -4 1 -13 9 -19 10 -9 15 -8 19 3 4 10 1 13 -7 10 -9 -3 -13
3 -12 18 1 26 36 33 44 8 5 -13 3 -13 -11 -1 -10 7 -17 9 -17 3 0 -5 7 -13 16
-16 8 -3 12 -10 9 -16 -3 -5 -1 -10 5 -10 7 0 10 7 7 15 -4 8 -2 17 4 21 6 3
3 11 -8 20 -24 18 -33 17 -63 -6z"/>
<path d="M4432 5245 c-7 -14 -19 -28 -27 -31 -12 -5 -12 -8 0 -20 18 -18 31
-18 16 0 -9 11 -6 14 14 14 21 0 23 -3 14 -14 -10 -12 -9 -13 5 -8 10 4 15 13
12 21 -3 8 -6 17 -6 20 0 3 -8 -1 -17 -8 -15 -12 -16 -12 -10 4 4 10 7 21 7
23 0 3 4 2 10 -1 6 -3 7 1 4 9 -8 21 -9 20 -22 -9z"/>
<path d="M4498 5251 c-31 -18 -39 -38 -9 -22 15 8 22 6 33 -11 15 -22 15 -22
13 10 -2 41 -4 42 -37 23z m32 -11 c0 -5 -2 -10 -4 -10 -3 0 -8 5 -11 10 -3 6
-1 10 4 10 6 0 11 -4 11 -10z"/>
<path d="M4400 5239 c0 -5 5 -7 10 -4 6 3 10 8 10 11 0 2 -4 4 -10 4 -5 0 -10
-5 -10 -11z"/>
<path d="M4501 5203 c12 -15 12 -16 -3 -10 -13 4 -15 2 -11 -10 4 -9 2 -14 -3
-10 -20 12 -33 -7 -18 -27 10 -14 14 -16 14 -5 0 12 2 12 11 -1 8 -12 9 -11 4
6 -3 13 0 26 9 33 16 13 11 41 -6 41 -6 0 -4 -8 3 -17z"/>
<path d="M4521 5177 c-6 -8 -11 -19 -10 -23 5 -31 -2 -45 -21 -39 -11 3 -20 2
-20 -3 0 -6 11 -9 25 -7 16 1 24 -2 22 -9 -2 -6 -15 -10 -28 -9 -22 2 -22 2
-4 -6 11 -5 16 -10 10 -10 -5 -1 1 -8 13 -17 19 -13 21 -19 11 -30 -7 -8 -18
-13 -25 -10 -10 4 -11 0 -2 -19 6 -13 14 -22 18 -20 4 3 10 -4 13 -15 3 -11
11 -20 19 -20 8 0 9 3 2 8 -22 15 -23 41 -2 56 12 8 25 13 30 10 4 -3 8 0 8 6
0 7 -7 10 -15 7 -8 -4 -17 -2 -20 2 -2 5 4 11 15 14 11 3 20 11 20 19 0 8 -3
9 -8 2 -12 -17 -39 -23 -51 -11 -17 17 -13 31 4 17 12 -10 18 -10 30 0 8 7 14
19 13 26 -2 7 5 19 15 26 17 13 16 14 -10 12 -15 -1 -31 -2 -36 -3 -4 0 -1
-11 8 -24 14 -22 12 -37 -7 -37 -4 0 -7 3 -6 8 1 4 -2 17 -6 30 -6 17 -3 27 9
36 13 9 15 17 8 30 -8 15 -11 15 -22 3z m19 -17 c0 -5 -4 -10 -10 -10 -5 0
-10 5 -10 10 0 6 5 10 10 10 6 0 10 -4 10 -10z m30 -34 c0 -3 -4 -8 -10 -11
-5 -3 -10 -1 -10 4 0 6 5 11 10 11 6 0 10 -2 10 -4z m-40 -121 c-7 -8 -17 -15
-23 -15 -5 0 -2 9 8 20 21 23 35 19 15 -5z"/>
<path d="M4600 5160 c0 -5 5 -10 10 -10 6 0 10 5 10 10 0 6 -4 10 -10 10 -5 0
-10 -4 -10 -10z"/>
<path d="M4700 5018 c0 -6 3 -8 7 -5 3 4 17 0 30 -8 22 -15 23 -15 12 2 -12
21 -49 28 -49 11z"/>
<path d="M4465 4989 c-4 -6 -5 -12 -2 -15 2 -3 7 2 10 11 7 17 1 20 -8 4z"/>
<path d="M4720 4919 c0 -5 5 -7 10 -4 6 3 10 8 10 11 0 2 -4 4 -10 4 -5 0 -10
-5 -10 -11z"/>
<path d="M5505 5320 c3 -5 8 -10 11 -10 2 0 4 5 4 10 0 6 -5 10 -11 10 -5 0
-7 -4 -4 -10z"/>
<path d="M5015 5360 c-3 -5 -1 -10 4 -10 6 0 11 5 11 10 0 6 -2 10 -4 10 -3 0
-8 -4 -11 -10z"/>
<path d="M4867 5324 c-3 -4 0 -13 8 -20 7 -8 15 -19 18 -26 2 -7 7 -11 9 -8 3
3 -2 17 -12 32 -9 16 -19 25 -23 22z"/>
<path d="M4843 5285 c-3 -9 -3 -19 1 -22 3 -4 6 1 6 10 0 8 6 18 13 20 9 4 9
6 -1 6 -7 1 -15 -6 -19 -14z"/>
<path d="M5026 5254 c-8 -21 -8 -24 5 -24 5 0 7 5 4 10 -10 17 5 11 27 -10 17
-15 24 -17 30 -8 11 18 10 28 -3 28 -5 0 -7 -4 -4 -10 3 -5 1 -10 -4 -10 -6 0
-11 3 -11 8 0 4 -9 13 -19 19 -16 10 -20 9 -25 -3z"/>
<path d="M4978 5238 c8 -9 11 -22 7 -28 -3 -5 -4 -10 -1 -10 3 0 11 10 17 23
6 12 8 19 4 15 -5 -4 -15 -2 -24 5 -14 10 -14 10 -3 -5z"/>
<path d="M4945 5230 c-3 -5 0 -19 8 -30 14 -20 15 -20 15 5 0 28 -13 41 -23
25z"/>
<path d="M4870 5210 c0 -5 5 -10 10 -10 6 0 10 5 10 10 0 6 -4 10 -10 10 -5 0
-10 -4 -10 -10z"/>
<path d="M4921 5207 c-1 -10 -5 -16 -9 -13 -9 5 -9 -50 -1 -58 2 -3 15 4 29
15 21 16 22 19 6 17 -10 -2 -21 3 -23 10 -3 8 2 10 14 6 11 -4 14 -3 7 3 -6 4
-14 15 -17 23 -4 12 -6 11 -6 -3z m4 -47 c3 -5 1 -10 -4 -10 -6 0 -11 5 -11
10 0 6 2 10 4 10 3 0 8 -4 11 -10z"/>
<path d="M5150 5180 c0 -5 5 -10 11 -10 5 0 7 5 4 10 -3 6 -8 10 -11 10 -2 0
-4 -4 -4 -10z"/>
<path d="M5635 5300 c3 -5 8 -10 11 -10 2 0 4 5 4 10 0 6 -5 10 -11 10 -5 0
-7 -4 -4 -10z"/>
<path d="M5005 5089 c-11 -16 -1 -19 13 -3 7 8 8 14 3 14 -5 0 -13 -5 -16 -11z"/>
<path d="M5020 5020 c0 -5 5 -10 11 -10 5 0 7 5 4 10 -3 6 -8 10 -11 10 -2 0
-4 -4 -4 -10z"/>
<path d="M5033 4993 c-7 -3 -13 -9 -13 -15 0 -6 7 -4 17 3 15 12 16 12 9 -6
-6 -16 -5 -18 5 -7 15 14 1 32 -18 25z"/>
<path d="M5495 5120 c3 -5 14 -10 23 -10 15 0 15 2 2 10 -20 13 -33 13 -25 0z"/>
<path d="M5680 4919 c0 -5 5 -7 10 -4 6 3 10 8 10 11 0 2 -4 4 -10 4 -5 0 -10
-5 -10 -11z"/>
<path d="M5495 5040 c-3 -5 -1 -10 4 -10 6 0 11 5 11 10 0 6 -2 10 -4 10 -3 0
-8 -4 -11 -10z"/>
<path d="M5347 5004 c-3 -4 0 -13 8 -21 16 -16 20 -38 6 -28 -15 9 -25 -15
-12 -28 9 -9 10 -7 5 7 -4 12 -4 17 2 13 22 -13 31 8 14 35 -9 16 -19 25 -23
22z"/>
<path d="M5323 4960 c-3 -11 -9 -18 -13 -15 -17 11 -20 -28 -3 -41 15 -11 16
-16 6 -33 -17 -27 -17 -40 0 -17 12 16 14 16 26 2 8 -9 11 -20 7 -23 -4 -4
-12 -1 -17 7 -8 11 -8 8 -3 -10 6 -22 5 -23 -10 -11 -9 7 -16 9 -16 3 0 -5 6
-12 14 -15 18 -7 48 26 41 45 -4 10 1 17 16 21 13 4 20 9 17 12 -3 4 -16 1
-28 -5 -12 -6 -24 -9 -27 -6 -12 12 -6 88 8 97 11 7 11 9 1 9 -8 0 -16 -9 -19
-20z m-3 -40 c0 -5 -2 -10 -4 -10 -3 0 -8 5 -11 10 -3 6 -1 10 4 10 6 0 11 -4
11 -10z"/>
<path d="M5244 4929 c-11 -18 14 -35 29 -20 10 10 9 11 -5 6 -20 -8 -25 10 -5
18 9 4 9 6 0 6 -6 1 -15 -4 -19 -10z"/>
<path d="M5450 4920 c0 -5 5 -10 11 -10 5 0 7 5 4 10 -3 6 -8 10 -11 10 -2 0
-4 -4 -4 -10z"/>
<path d="M5150 4739 c0 -5 5 -7 10 -4 6 3 10 8 10 11 0 2 -4 4 -10 4 -5 0 -10
-5 -10 -11z"/>
<path d="M5582 4732 c-9 -6 -7 -13 8 -30 21 -22 27 -37 10 -27 -5 3 -10 1 -10
-4 0 -13 10 -14 28 -3 9 6 7 13 -8 30 -21 22 -27 37 -10 27 6 -3 10 -1 10 4 0
13 -10 14 -28 3z"/>
<path d="M5350 4630 c0 -5 5 -10 10 -10 6 0 10 5 10 10 0 6 -4 10 -10 10 -5 0
-10 -4 -10 -10z"/>
<path d="M5477 4623 c-4 -3 -7 -13 -7 -22 1 -13 3 -13 11 2 11 19 8 33 -4 20z"/>
<path d="M5150 5033 c8 -3 19 -11 23 -17 6 -7 7 -6 4 4 -2 8 -12 16 -23 17
-13 2 -15 1 -4 -4z"/>
<path d="M5183 5005 c-7 -7 -18 -15 -25 -18 -7 -2 -11 -7 -8 -9 3 -3 18 3 33
12 16 10 25 20 20 23 -4 3 -13 -1 -20 -8z"/>
<path d="M5210 4880 c0 -5 5 -10 11 -10 5 0 7 5 4 10 -3 6 -8 10 -11 10 -2 0
-4 -4 -4 -10z"/>
<path d="M5075 4700 c-3 -5 -1 -10 4 -10 6 0 11 5 11 10 0 6 -2 10 -4 10 -3 0
-8 -4 -11 -10z"/>
<path d="M5710 4659 c0 -5 5 -7 10 -4 6 3 10 8 10 11 0 2 -4 4 -10 4 -5 0 -10
-5 -10 -11z"/>
<path d="M4950 5938 c0 -6 3 -8 7 -5 8 8 43 -22 43 -36 0 -6 -8 -3 -18 6 -21
20 -32 22 -32 6 0 -5 5 -7 12 -3 7 5 9 2 5 -9 -4 -12 -2 -14 11 -10 15 6 15 5
3 -10 -9 -11 -10 -17 -2 -17 6 0 11 5 11 11 0 8 5 7 15 -1 9 -7 18 -10 22 -6
3 3 2 6 -3 6 -15 0 -14 37 1 50 10 8 17 6 28 -10 8 -12 18 -17 21 -12 3 6 -1
13 -10 16 -8 3 -13 10 -10 15 7 11 -13 9 -33 -3 -11 -7 -13 -5 -9 6 4 8 1 15
-7 15 -7 0 -11 -7 -8 -16 4 -13 2 -13 -10 2 -16 19 -37 23 -37 5z"/>
<path d="M4760 5921 c-8 -6 -18 -7 -22 -5 -5 3 -7 0 -6 -8 2 -8 -6 -12 -22
-10 l-25 3 23 -16 c12 -9 22 -21 22 -27 0 -7 -6 -6 -15 2 -10 9 -15 9 -15 1 0
-6 5 -11 11 -11 5 0 7 -6 3 -12 -4 -7 5 -2 19 11 18 16 25 31 21 43 -5 17 10
26 19 11 2 -5 2 -2 0 5 -1 8 3 12 9 9 7 -2 12 -11 10 -21 -2 -9 1 -16 6 -16
13 0 11 34 -2 42 -14 10 -18 10 -36 -1z m-10 -41 c0 -5 -4 -10 -10 -10 -5 0
-10 5 -10 10 0 6 5 10 10 10 6 0 10 -4 10 -10z"/>
<path d="M4921 5896 c-11 -13 -11 -19 0 -32 11 -14 13 -14 21 0 5 9 5 23 0 32
-8 14 -10 14 -21 0z m19 -16 c0 -5 -4 -10 -10 -10 -5 0 -10 5 -10 10 0 6 5 10
10 10 6 0 10 -4 10 -10z"/>
<path d="M5034 5898 c3 -10 9 -25 12 -33 4 -10 0 -15 -12 -16 -11 -1 -26 -2
-34 -3 -8 -1 -23 2 -32 7 -10 4 -18 4 -18 -1 0 -5 11 -14 25 -20 38 -17 89 10
79 41 -3 12 -11 27 -17 32 -7 7 -8 4 -3 -7z"/>
<path d="M5180 5860 c0 -6 7 -10 15 -10 8 0 15 2 15 4 0 2 -7 6 -15 10 -8 3
-15 1 -15 -4z"/>
<path d="M4587 5810 c-9 -11 -13 -20 -8 -20 11 0 35 29 29 35 -2 2 -12 -4 -21
-15z"/>
<path d="M4830 5798 c0 -9 5 -20 10 -23 13 -8 13 5 0 25 -8 13 -10 13 -10 -2z"/>
<path d="M5270 5770 c0 -5 7 -7 15 -4 8 4 15 8 15 10 0 2 -7 4 -15 4 -8 0 -15
-4 -15 -10z"/>
<path d="M4995 5733 c8 -18 20 -33 26 -33 6 0 6 4 -1 13 -6 6 -17 21 -26 32
-13 17 -12 15 1 -12z"/>
<path d="M5297 5749 c7 -7 15 -10 18 -7 3 3 -2 9 -12 12 -14 6 -15 5 -6 -5z"/>
<path d="M4514 5738 c-4 -7 -3 -8 4 -4 7 4 12 1 12 -9 0 -9 -4 -13 -10 -10 -6
4 -7 -1 -3 -12 6 -17 5 -17 -13 -1 -19 16 -20 16 -20 -1 0 -11 6 -17 13 -14
12 5 18 -13 14 -43 -1 -6 5 -17 13 -23 11 -9 15 -8 20 6 5 11 1 22 -10 30 -17
12 -17 15 -1 47 13 29 14 35 2 40 -8 3 -17 0 -21 -6z m26 -98 c0 -5 -4 -10
-10 -10 -5 0 -10 5 -10 10 0 6 5 10 10 10 6 0 10 -4 10 -10z"/>
<path d="M4549 5705 c-9 -19 -14 -36 -10 -36 3 -1 19 -2 34 -3 26 -2 27 -1 10
11 -11 9 -17 23 -15 38 5 33 0 31 -19 -10z m16 -25 c3 -5 1 -10 -4 -10 -6 0
-11 5 -11 10 0 6 2 10 4 10 3 0 8 -4 11 -10z"/>
<path d="M4455 5681 c-6 -11 13 -26 22 -17 4 3 1 6 -6 6 -7 0 -9 5 -6 10 3 6
4 10 1 10 -3 0 -7 -4 -11 -9z"/>
<path d="M4486 5654 c-3 -8 -10 -12 -16 -9 -5 3 -10 1 -10 -4 0 -6 7 -11 15
-11 19 0 19 -9 -1 -31 -12 -13 -13 -22 -5 -36 6 -10 11 -14 11 -9 0 4 11 1 25
-8 14 -9 26 -13 26 -9 1 5 2 21 3 37 2 27 1 28 -12 8 -8 -13 -20 -18 -33 -15
-22 6 -24 14 -7 31 17 17 33 15 18 -3 -7 -9 -8 -15 -2 -15 17 0 22 28 6 41 -8
7 -12 20 -9 30 8 23 0 25 -9 3z m44 -94 c0 -5 -5 -10 -11 -10 -5 0 -7 5 -4 10
3 6 8 10 11 10 2 0 4 -4 4 -10z"/>
<path d="M4600 5640 c0 -5 5 -10 10 -10 6 0 10 5 10 10 0 6 -4 10 -10 10 -5 0
-10 -4 -10 -10z"/>
<path d="M5140 5640 c0 -5 5 -10 10 -10 6 0 10 5 10 10 0 6 -4 10 -10 10 -5 0
-10 -4 -10 -10z"/>
<path d="M5424 5613 c-8 -12 -4 -22 14 -40 29 -29 40 -25 12 5 -21 23 -27 37
-10 27 6 -3 10 -2 10 4 0 18 -16 20 -26 4z"/>
<path d="M4952 5600 c-13 -21 -8 -45 7 -35 7 4 13 55 7 55 -1 0 -7 -9 -14 -20z"/>
<path d="M4870 5590 c0 -5 5 -10 10 -10 6 0 10 5 10 10 0 6 -4 10 -10 10 -5 0
-10 -4 -10 -10z"/>
<path d="M5460 5591 c0 -6 4 -13 10 -16 6 -3 7 1 4 9 -7 18 -14 21 -14 7z"/>
<path d="M5062 5570 c-22 -21 -37 -27 -27 -10 3 6 1 10 -4 10 -13 0 -14 -10
-3 -28 6 -9 13 -7 30 8 22 21 37 27 27 10 -3 -5 -1 -10 4 -10 13 0 14 10 3 28
-6 9 -13 7 -30 -8z"/>
<path d="M5486 5565 c-3 -8 -1 -15 4 -15 6 0 10 7 10 15 0 8 -2 15 -4 15 -2 0
-6 -7 -10 -15z"/>
<path d="M3095 5546 c-27 -7 -68 -21 -90 -31 -49 -22 -1237 -1202 -1264 -1255
-21 -40 -20 -94 2 -136 24 -45 258 -271 297 -288 40 -16 88 -13 128 8 15 8
247 235 517 505 269 270 493 491 496 491 9 0 209 -201 209 -210 0 -5 -334
-343 -742 -752 -896 -897 -881 -881 -1045 -1108 -294 -407 -516 -984 -559
-1453 -11 -118 30 -203 119 -249 70 -36 135 -33 407 17 74 13 130 27 263 66
450 130 900 382 1237 693 30 28 490 487 1023 1019 l969 968 -28 31 c-168 175
-1618 1616 -1645 1633 -83 53 -199 73 -294 51z"/>
<path d="M4390 5530 c0 -5 5 -10 10 -10 6 0 10 5 10 10 0 6 -4 10 -10 10 -5 0
-10 -4 -10 -10z"/>
<path d="M5350 5530 c0 -5 5 -10 10 -10 6 0 10 5 10 10 0 6 -4 10 -10 10 -5 0
-10 -4 -10 -10z"/>
<path d="M5530 5531 c0 -10 19 -25 25 -20 1 2 -3 10 -11 17 -8 7 -14 8 -14 3z"/>
<path d="M5394 5498 c19 -33 4 -38 -18 -7 l-14 21 -21 -21 c-12 -12 -17 -21
-13 -21 4 0 14 6 21 13 10 10 16 8 29 -8 16 -19 19 -20 44 -5 31 17 39 37 9
21 -15 -8 -22 -6 -36 12 -16 21 -16 21 -1 -5z"/>
<path d="M5548 5478 c-10 -10 -14 -18 -10 -18 4 0 13 5 20 12 9 9 12 9 12 0 0
-7 4 -12 8 -12 5 0 9 7 9 15 0 8 -4 12 -8 9 -4 -2 -9 -1 -11 4 -1 4 -11 0 -20
-10z"/>
<path d="M4255 5480 c-3 -5 -1 -10 4 -10 6 0 11 5 11 10 0 6 -2 10 -4 10 -3 0
-8 -4 -11 -10z"/>
<path d="M5670 5370 c0 -5 5 -10 10 -10 6 0 10 5 10 10 0 6 -4 10 -10 10 -5 0
-10 -4 -10 -10z"/>
<path d="M5670 5340 c0 -5 5 -10 10 -10 6 0 10 -7 10 -15 0 -8 4 -15 10 -15 6
0 5 10 -2 25 -11 25 -28 34 -28 15z"/>
<path d="M5275 5330 c-3 -5 -1 -10 4 -10 6 0 11 5 11 10 0 6 -2 10 -4 10 -3 0
-8 -4 -11 -10z"/>
<path d="M5325 5330 c-17 -27 63 -77 95 -60 27 14 25 19 -7 18 -56 -1 -63 1
-60 23 2 24 -17 37 -28 19z m25 -10 c0 -5 -4 -10 -10 -10 -5 0 -10 5 -10 10 0
6 5 10 10 10 6 0 10 -4 10 -10z"/>
<path d="M5755 5290 c-3 -5 -1 -10 4 -10 6 0 11 5 11 10 0 6 -2 10 -4 10 -3 0
-8 -4 -11 -10z"/>
<path d="M5780 5271 c0 -6 4 -13 10 -16 6 -3 7 1 4 9 -7 18 -14 21 -14 7z"/>
<path d="M5806 5245 c-3 -8 -1 -15 4 -15 6 0 10 7 10 15 0 8 -2 15 -4 15 -2 0
-6 -7 -10 -15z"/>
<path d="M5855 5180 c-4 -6 -15 -8 -25 -5 -24 8 -35 -11 -19 -31 19 -23 66
-45 83 -38 27 10 18 20 -20 21 -19 0 -38 3 -41 7 -7 7 16 36 29 36 6 0 5 -7
-2 -15 -9 -10 -9 -15 -1 -15 6 0 11 5 11 11 0 8 6 7 18 -2 13 -11 13 -8 -3 11
-11 14 -21 26 -21 28 -1 2 -5 -2 -9 -8z m-25 -20 c0 -5 -4 -10 -10 -10 -5 0
-10 5 -10 10 0 6 5 10 10 10 6 0 10 -4 10 -10z"/>
<path d="M5620 5160 c0 -5 5 -10 10 -10 6 0 10 5 10 10 0 6 -4 10 -10 10 -5 0
-10 -4 -10 -10z"/>
<path d="M4960 5120 c-13 -8 -13 -10 2 -10 9 0 20 5 23 10 8 13 -5 13 -25 0z"/>
<path d="M5240 5100 c-6 -11 -8 -20 -6 -20 3 0 10 9 16 20 6 11 8 20 6 20 -3
0 -10 -9 -16 -20z"/>
<path d="M5266 5095 c-3 -8 -3 -22 0 -30 5 -11 10 -12 25 -2 10 6 19 14 19 17
0 3 -9 11 -19 17 -15 10 -20 9 -25 -2z m24 -15 c0 -5 -4 -10 -10 -10 -5 0 -10
5 -10 10 0 6 5 10 10 10 6 0 10 -4 10 -10z"/>
<path d="M5200 5080 c0 -5 5 -10 10 -10 6 0 10 5 10 10 0 6 -4 10 -10 10 -5 0
-10 -4 -10 -10z"/>
<path d="M5320 5080 c0 -5 5 -10 10 -10 6 0 10 5 10 10 0 6 -4 10 -10 10 -5 0
-10 -4 -10 -10z"/>
<path d="M4310 5049 c0 -5 5 -7 10 -4 6 3 10 1 10 -4 0 -6 -5 -11 -11 -11 -5
0 -7 -5 -4 -11 5 -6 12 -4 20 8 10 13 10 20 2 25 -17 11 -27 10 -27 -3z"/>
<path d="M5910 5050 c0 -5 5 -10 10 -10 6 0 10 5 10 10 0 6 -4 10 -10 10 -5 0
-10 -4 -10 -10z"/>
<path d="M5273 5022 c0 -12 5 -22 9 -22 11 0 10 12 -2 30 -7 12 -9 10 -7 -8z"/>
<path d="M5910 5018 c0 -11 12 -10 30 2 12 7 10 9 -8 7 -12 0 -22 -5 -22 -9z"/>
<path d="M4360 5000 c0 -5 5 -10 11 -10 5 0 7 5 4 10 -3 6 -8 10 -11 10 -2 0
-4 -4 -4 -10z"/>
<path d="M4805 5000 c-3 -5 -2 -10 4 -10 5 0 13 5 16 10 3 6 2 10 -4 10 -5 0
-13 -4 -16 -10z"/>
<path d="M4935 5000 c3 -5 11 -10 16 -10 6 0 7 5 4 10 -3 6 -11 10 -16 10 -6
0 -7 -4 -4 -10z"/>
<path d="M5250 4994 c0 -2 9 -8 20 -14 11 -6 20 -7 20 -2 0 6 -9 12 -20 15
-11 3 -20 3 -20 1z"/>
<path d="M5924 4962 c3 -6 -2 -17 -11 -24 -19 -14 -28 -38 -15 -38 4 0 12 10
17 23 6 12 18 21 28 21 23 -2 22 3 -4 17 -13 7 -19 7 -15 1z"/>
<path d="M4870 4950 c0 -5 5 -10 10 -10 6 0 10 5 10 10 0 6 -4 10 -10 10 -5 0
-10 -4 -10 -10z"/>
<path d="M4468 4936 c-13 -10 -15 -15 -6 -24 15 -15 28 -15 28 -1 0 5 -4 7
-10 4 -5 -3 -10 -2 -10 4 0 5 6 11 13 14 6 2 10 7 7 10 -3 3 -13 0 -22 -7z"/>
<path d="M4442 4901 c13 -15 26 -27 30 -25 7 4 -38 54 -48 54 -3 0 5 -13 18
-29z"/>
<path d="M5841 4926 c-1 -5 6 -17 15 -27 14 -15 12 -19 -21 -39 -28 -17 -39
-19 -50 -10 -8 6 -23 9 -34 5 -18 -6 -19 -9 -8 -28 14 -23 14 -47 2 -82 -5
-14 -4 -16 3 -7 5 8 12 13 16 13 20 -3 26 0 20 10 -5 8 -9 8 -14 -1 -4 -7 -6
8 -5 34 2 25 -1 43 -6 40 -5 -3 -9 0 -9 6 0 6 8 10 18 8 10 -2 16 -12 15 -23
-1 -11 0 -14 3 -7 9 20 22 13 22 -13 0 -25 -12 -34 -21 -15 -3 6 -4 5 -3 -2 2
-7 14 -12 27 -11 24 3 24 3 4 -13 -16 -13 -16 -15 -3 -11 10 4 21 0 25 -8 7
-12 11 -11 21 5 7 12 8 20 2 20 -5 0 -10 -5 -10 -11 0 -5 -5 -7 -11 -3 -7 4
-6 11 5 22 12 12 18 13 30 3 14 -11 14 -15 0 -36 -11 -18 -13 -29 -5 -43 10
-19 6 -32 -11 -32 -5 0 -6 4 -3 10 7 11 -25 59 -39 60 -5 0 -3 -6 3 -14 9 -11
6 -13 -14 -13 -21 0 -23 2 -14 13 10 12 9 13 -5 8 -10 -4 -15 -13 -12 -21 3
-8 6 -17 6 -20 0 -3 8 1 17 8 15 12 16 12 10 -4 -4 -10 -7 -21 -7 -23 0 -3 -4
-2 -10 1 -5 3 -7 0 -4 -8 3 -8 -2 -20 -11 -27 -8 -7 -15 -9 -15 -5 0 5 -9 0
-19 -9 -19 -18 -18 -46 1 -46 6 0 5 6 -2 15 -8 9 -9 15 -2 15 6 0 14 -5 18
-11 4 -8 9 -8 17 0 20 20 31 11 12 -9 -10 -11 -24 -20 -32 -20 -7 0 -13 -4
-13 -8 0 -4 9 -8 19 -8 11 0 17 5 14 10 -4 5 1 7 9 3 10 -3 15 0 14 11 0 9 5
16 12 14 8 -1 11 2 6 9 -4 7 -8 25 -9 40 -2 21 1 26 14 22 13 -4 14 -3 2 5
-12 9 -12 13 -2 26 13 16 31 13 31 -5 0 -6 -6 -7 -12 -3 -9 5 -9 3 1 -9 11
-14 11 -18 -3 -23 -9 -3 -16 -11 -16 -16 0 -6 6 -6 14 1 10 8 16 9 19 1 3 -6
4 -5 3 2 -1 7 7 20 18 30 17 13 19 19 9 29 -7 7 -13 18 -13 23 0 6 5 5 12 -2
7 -7 17 -12 23 -12 5 0 2 5 -7 11 -9 5 -15 16 -12 24 4 8 11 12 18 8 6 -4 4 1
-4 12 -14 16 -13 17 6 11 26 -8 39 16 24 45 -8 15 -7 21 5 25 8 3 15 11 15 16
0 6 -6 5 -15 -2 -16 -14 -20 -3 -6 19 5 7 13 11 18 8 5 -3 9 4 8 15 -2 24 -19
35 -30 19 -4 -7 1 -9 12 -5 14 4 13 2 -4 -14 -28 -25 -66 -19 -58 9 4 11 2 19
-5 19 -6 0 -8 -4 -5 -10 3 -5 2 -10 -4 -10 -5 0 -12 6 -14 13 -3 6 -6 8 -6 3z
m74 -71 c-1 -11 2 -28 7 -39 7 -12 6 -22 -3 -30 -9 -8 -11 -7 -7 4 4 11 -1 16
-15 17 -11 1 -24 8 -28 15 -7 11 -9 10 -9 0 0 -8 9 -16 20 -19 11 -3 17 -9 14
-15 -3 -5 -12 -4 -20 3 -11 9 -17 9 -28 0 -11 -9 -16 -9 -22 1 -15 24 -9 43
21 65 38 27 72 27 70 -2z m-131 -240 c-19 -14 -34 -11 -34 6 0 6 4 8 9 4 6 -3
16 1 23 9 7 8 15 10 17 4 1 -5 -5 -15 -15 -23z"/>
<path d="M5860 4851 c-26 -17 -39 -51 -20 -51 6 0 9 4 5 9 -6 10 21 41 36 41
5 0 8 -5 7 -11 -2 -6 4 -14 12 -16 12 -4 12 -3 2 5 -8 5 -13 12 -12 16 4 18
-8 21 -30 7z"/>
<path d="M5080 4840 c0 -5 5 -10 10 -10 6 0 10 5 10 10 0 6 -4 10 -10 10 -5 0
-10 -4 -10 -10z"/>
<path d="M4630 4729 c0 -5 5 -7 10 -4 6 3 10 1 10 -4 0 -6 -5 -11 -11 -11 -5
0 -7 -5 -4 -11 5 -6 12 -4 20 8 10 13 10 20 2 25 -17 11 -27 10 -27 -3z"/>
<path d="M4884 4706 c-10 -16 -22 -23 -32 -20 -11 4 -10 1 3 -7 11 -7 24 -17
28 -23 5 -6 5 0 2 14 -7 24 -6 24 11 8 21 -20 9 -39 -27 -45 -18 -3 -19 -1
-10 11 9 11 8 15 -5 20 -21 8 -21 8 -28 -10 -5 -14 -4 -15 8 -5 11 9 14 7 14
-14 0 -20 -3 -23 -14 -14 -10 8 -14 8 -14 0 0 -6 5 -11 11 -11 5 0 8 -4 5 -9
-3 -5 0 -14 8 -20 10 -9 15 -8 20 4 3 9 10 14 15 10 5 -3 12 -1 16 5 3 5 11
10 17 10 6 0 6 -6 -2 -15 -7 -9 -10 -18 -7 -22 9 -9 -13 -34 -24 -27 -5 3 -9
2 -9 -2 0 -9 32 -33 44 -34 6 0 1 7 -10 15 -18 14 -18 15 5 12 13 -1 25 4 27
11 1 7 0 8 -3 2 -9 -19 -20 -10 -20 15 0 24 11 34 20 18 2 -5 2 -1 -1 7 -8 25
-4 53 10 63 9 6 8 7 -5 3 -12 -4 -17 -2 -14 6 2 7 10 12 17 10 7 -1 21 0 32 4
18 5 16 8 -16 30 -44 30 -52 30 -72 0z m52 -1 c4 -8 10 -13 14 -10 5 3 12 0
15 -6 5 -6 0 -9 -11 -8 -11 2 -24 0 -30 -4 -14 -8 -38 18 -29 33 9 15 35 12
41 -5z m-16 -71 c0 -8 -4 -13 -9 -10 -5 3 -12 -1 -15 -10 -3 -8 -10 -13 -15
-9 -5 3 -12 1 -16 -5 -3 -5 -11 -10 -17 -10 -6 0 -3 9 7 20 10 11 21 17 25 15
4 -3 13 2 20 10 16 19 20 19 20 -1z"/>
<path d="M4910 4700 c0 -5 5 -10 11 -10 5 0 7 5 4 10 -3 6 -8 10 -11 10 -2 0
-4 -4 -4 -10z"/>
<path d="M4731 4693 c3 -17 -1 -33 -8 -32 -29 5 -33 -2 -16 -25 17 -23 18 -23
31 -5 7 11 17 17 21 15 4 -3 8 5 8 16 1 12 8 25 15 29 11 7 10 9 0 9 -8 0 -16
-9 -19 -20 -3 -11 -9 -17 -14 -15 -4 3 -6 12 -2 20 3 8 0 15 -6 15 -6 0 -10
-3 -10 -7z m9 -48 c-7 -8 -16 -12 -21 -9 -16 9 -10 20 12 21 17 2 18 -1 9 -12z"/>
<path d="M4807 4684 c3 -9 0 -14 -8 -12 -8 2 -14 -5 -14 -16 0 -10 -9 -23 -20
-27 -14 -5 -15 -8 -4 -8 8 -1 20 4 27 11 9 9 12 9 12 0 0 -7 -7 -15 -15 -18
-12 -5 -13 -10 -4 -20 6 -8 15 -11 20 -8 5 3 9 0 9 -5 0 -19 -28 -12 -44 11
-9 12 -18 20 -20 17 -2 -2 6 -16 18 -30 16 -19 27 -24 37 -18 22 14 33 10 19
-6 -8 -9 -8 -15 -2 -15 18 0 20 24 4 42 -19 23 -22 58 -6 85 11 18 11 22 -1
27 -9 3 -12 0 -8 -10z"/>
<path d="M4680 4680 c0 -5 5 -10 11 -10 5 0 7 5 4 10 -3 6 -8 10 -11 10 -2 0
-4 -4 -4 -10z"/>
<path d="M4952 4640 c-8 -13 -9 -27 -4 -38 11 -23 8 -58 -8 -77 -8 -10 -9 -15
-1 -15 6 0 11 5 11 11 0 5 4 8 8 5 10 -6 15 44 11 117 0 22 -1 21 -17 -3z m18
-45 c0 -5 -5 -3 -10 5 -5 8 -10 20 -10 25 0 6 5 3 10 -5 5 -8 10 -19 10 -25z"/>
<path d="M4990 4620 c6 -11 13 -20 16 -20 2 0 0 9 -6 20 -6 11 -13 20 -16 20
-2 0 0 -9 6 -20z"/>
<path d="M5066 4614 c-11 -7 -16 -17 -11 -21 4 -5 10 -2 12 5 3 6 9 12 14 12
6 0 7 -4 4 -10 -3 -5 -1 -10 4 -10 13 0 14 10 3 27 -5 8 -12 8 -26 -3z"/>
<path d="M5024 4595 c4 -10 -1 -14 -16 -12 -11 1 -22 -4 -24 -11 -1 -7 0 -8 3
-2 9 19 21 10 21 -15 0 -24 -12 -34 -21 -17 -2 4 -2 2 -1 -5 4 -16 -44 -46
-59 -37 -7 4 -9 4 -5 -1 5 -5 -1 -14 -12 -22 -11 -8 -20 -19 -20 -25 0 -7 9
-2 20 10 25 26 42 29 34 5 -4 -11 -3 -14 3 -7 13 17 40 23 52 11 16 -16 13
-31 -4 -17 -16 13 -39 4 -29 -12 5 -8 1 -9 -11 -4 -15 5 -16 4 -5 -9 10 -12
15 -13 21 -3 4 6 5 16 3 20 -3 4 -1 8 5 8 15 0 23 -18 11 -25 -5 -3 -10 -14
-9 -23 0 -12 3 -10 10 6 5 13 14 20 20 17 5 -4 19 1 30 11 23 21 30 16 31 -22
1 -59 -1 -66 -19 -60 -15 6 -15 4 1 -13 18 -20 18 -21 -5 -30 -13 -5 -18 -10
-11 -10 7 -1 21 5 33 12 17 10 22 9 39 -13 21 -26 25 -41 13 -39 -29 5 -33 -2
-16 -25 17 -23 18 -23 31 -5 7 11 17 17 21 15 11 -7 10 27 -2 42 -6 7 -17 10
-24 7 -9 -3 -13 0 -10 7 5 15 38 11 50 -5 6 -8 7 -5 3 6 -4 12 -2 17 6 14 7
-2 11 -11 10 -18 -2 -8 -5 -25 -6 -38 -2 -14 -12 -28 -22 -32 -14 -6 -15 -8
-3 -8 8 -1 20 4 26 10 8 8 17 8 32 0 15 -8 27 -9 40 -1 14 7 22 7 26 -1 4 -6
13 -8 21 -5 8 3 14 2 14 -3 0 -15 -13 -20 -30 -11 -11 6 -24 4 -37 -5 -19 -13
-22 -13 -27 1 -4 12 -13 14 -29 9 -12 -4 -31 -7 -42 -6 -16 0 -17 -2 -5 -9 8
-5 12 -10 8 -10 -4 0 5 -12 20 -27 23 -24 29 -26 39 -13 9 11 7 17 -8 28 -23
16 -25 32 -2 32 9 0 13 -3 10 -7 -4 -3 1 -12 11 -19 14 -11 15 -16 4 -34 -11
-18 -10 -25 11 -50 14 -16 27 -26 31 -23 3 3 -3 13 -14 20 -11 8 -17 19 -14
25 4 7 2 8 -4 4 -7 -4 -12 -3 -12 3 0 27 31 17 42 -14 1 -5 11 -9 21 -8 16 3
16 1 0 -25 l-17 -27 25 25 c13 14 20 27 16 28 -4 2 -3 10 4 18 15 19 2 18 -17
-1 -21 -20 -29 -19 -31 6 -2 17 1 18 13 9 10 -9 14 -9 14 -1 0 11 -13 15 -36
12 -19 -2 -24 38 -6 48 20 10 45 3 37 -9 -3 -5 -12 -7 -20 -3 -8 3 -15 -1 -15
-8 0 -7 3 -9 7 -6 3 4 17 0 31 -9 14 -9 30 -12 40 -8 9 4 20 7 24 6 4 -1 4 6
1 16 -6 15 -4 15 16 -2 21 -19 21 -19 15 -1 -6 14 -4 16 6 10 8 -5 11 -4 6 3
-4 6 -14 8 -23 5 -9 -4 -14 -2 -11 3 3 5 -1 15 -9 23 -13 12 -14 11 -8 -10 7
-23 6 -23 -11 -7 -21 20 -9 39 27 45 18 3 19 1 10 -11 -9 -11 -8 -15 5 -20 21
-8 21 -8 28 10 5 14 4 15 -8 5 -11 -9 -13 -7 -13 14 0 20 2 23 13 14 8 -6 14
-7 14 -2 0 5 -18 19 -40 32 -38 21 -46 19 -41 -11 0 -5 -3 -8 -7 -8 -17 0 -21
13 -9 31 9 14 9 21 -1 31 -22 22 -13 32 11 11 34 -32 65 -45 85 -36 29 14 57
9 66 -12 9 -20 9 -20 36 3 l27 24 -34 34 c-27 27 -33 39 -27 57 5 12 9 33 9
45 1 22 0 22 -12 6 -7 -10 -11 -25 -8 -34 4 -12 0 -16 -15 -15 -20 1 -53 25
-35 25 5 0 1 6 -9 13 -16 12 -22 10 -42 -10 -23 -23 -51 -32 -39 -13 3 5 2 16
-2 24 -7 12 -11 12 -27 0 -11 -7 -16 -17 -12 -21 4 -4 11 -1 16 7 5 8 12 11
16 7 11 -10 -17 -39 -33 -33 -8 3 -12 2 -9 -3 3 -5 -1 -12 -10 -15 -24 -9 -28
-7 -15 8 9 11 8 15 -5 20 -21 8 -21 8 -28 -10 -5 -14 -4 -15 8 -5 11 9 14 7
14 -14 0 -20 -3 -23 -14 -14 -10 8 -14 8 -14 0 0 -6 5 -11 10 -11 6 0 10 -5
10 -10 0 -7 -6 -7 -20 0 -12 6 -17 17 -14 28 4 12 2 12 -7 -3 -7 -11 -17 -24
-23 -28 -6 -5 -2 -6 10 -3 11 4 29 0 40 -8 16 -13 17 -18 6 -36 -7 -11 -10
-25 -7 -30 4 -6 1 -10 -6 -10 -7 0 -9 -3 -6 -6 4 -4 13 -1 22 6 10 8 15 9 15
1 0 -6 5 -11 11 -11 8 0 8 5 -1 15 -7 8 -16 12 -21 9 -5 -3 -9 -1 -9 5 0 24
20 19 46 -11 15 -18 25 -25 21 -15 -5 13 -3 17 5 14 7 -2 11 -13 10 -23 -5
-25 -8 -28 -24 -18 -7 5 -30 10 -51 10 -21 1 -41 4 -44 7 -3 4 4 22 15 41 18
30 18 35 5 40 -8 3 -19 3 -24 0 -13 -7 -41 15 -33 27 3 5 0 9 -6 9 -7 0 -9 -7
-6 -16 4 -11 2 -15 -8 -11 -10 4 -13 1 -10 -8 4 -11 -1 -13 -22 -9 -38 7 -38
7 -19 43 14 28 14 34 0 61 -19 37 -19 37 4 43 23 6 64 -20 56 -34 -4 -5 -1 -9
5 -9 7 0 9 8 4 22 -6 20 -5 21 8 10 13 -10 17 -10 22 4 7 19 -1 34 -17 33 -9
0 -9 -2 1 -6 21 -8 13 -20 -13 -20 -24 0 -34 11 -17 20 4 2 1 2 -6 0 -9 -2
-11 3 -8 15 4 11 -4 23 -23 37 -16 10 -27 23 -24 29 3 5 1 6 -6 2 -14 -9 -43
12 -35 25 3 5 0 9 -6 9 -7 0 -10 -7 -6 -15z m63 -67 c-1 -10 -4 -18 -8 -18
-14 0 -39 32 -34 41 4 5 1 9 -5 9 -6 0 -10 -6 -8 -14 2 -7 -6 -22 -17 -32 -12
-11 -15 -15 -9 -11 8 5 24 1 41 -9 l28 -16 -25 21 c-29 24 -15 28 18 5 21 -15
28 -9 23 19 -1 5 4 7 10 5 21 -7 17 -44 -4 -45 -11 -1 -32 -13 -46 -27 -28
-27 -52 -36 -33 -13 13 16 -23 43 -52 38 -11 -2 -16 2 -11 9 4 6 9 9 12 7 2
-3 16 6 30 19 14 13 23 27 20 31 -4 3 -2 12 4 19 14 17 68 -14 66 -38z m327
-94 c7 -19 -1 -34 -19 -34 -21 0 -28 19 -15 35 16 19 26 19 34 -1z m-93 -36
c-14 -5 -21 -14 -18 -22 7 -18 -11 -36 -29 -29 -8 3 -14 0 -14 -7 0 -6 5 -8
10 -5 6 3 13 -1 16 -9 3 -9 11 -16 16 -16 6 0 5 6 -2 15 -9 11 -9 15 -1 15 21
0 25 -32 6 -46 -21 -15 -39 -8 -31 12 3 8 0 11 -8 8 -18 -7 -27 31 -12 51 16
22 69 53 80 47 5 -3 -1 -9 -13 -14z m86 -2 c33 14 63 14 63 -2 0 -8 7 -17 15
-21 14 -5 14 -8 -2 -27 -16 -19 -16 -19 0 -7 14 11 20 11 32 1 8 -7 15 -16 15
-20 0 -15 -33 -20 -47 -8 -18 15 -54 18 -69 7 -17 -14 -63 13 -61 35 1 10 -5
21 -13 23 -13 4 -13 3 0 -6 8 -5 11 -13 7 -17 -7 -8 -37 14 -37 27 0 5 7 9 15
9 9 0 18 7 22 15 5 14 8 14 24 -1 12 -11 24 -14 36 -8z m-242 -66 c3 -5 -1
-10 -10 -10 -9 0 -13 5 -10 10 3 6 8 10 10 10 2 0 7 -4 10 -10z m45 -10 c0 -5
-2 -10 -4 -10 -3 0 -8 5 -11 10 -3 6 -1 10 4 10 6 0 11 -4 11 -10z m-55 -41
c8 -12 -24 -51 -36 -43 -11 6 -12 24 -1 23 26 -4 34 1 22 16 -8 9 -9 15 -2 15
6 0 14 -5 17 -11z m224 2 c11 -7 11 -10 0 -17 -8 -5 -20 -9 -28 -11 -8 -1 -18
-8 -22 -15 -7 -10 -9 -9 -9 3 0 9 7 20 16 23 8 3 12 10 9 16 -8 12 15 13 34 1z
m-33 -110 c-9 -14 -33 -14 -41 -1 -4 6 -1 18 6 26 11 13 14 13 27 0 8 -8 11
-19 8 -25z m-136 -14 c0 -6 -9 -2 -20 8 -11 10 -20 23 -20 28 0 6 9 2 20 -8
11 -10 20 -23 20 -28z"/>
<path d="M5015 4480 c3 -5 14 -10 23 -10 15 0 15 2 2 10 -20 13 -33 13 -25 0z"/>
<path d="M5390 4419 c0 -5 5 -7 10 -4 6 3 10 8 10 11 0 2 -4 4 -10 4 -5 0 -10
-5 -10 -11z"/>
<path d="M5275 4370 c-3 -5 -1 -10 4 -10 6 0 11 5 11 10 0 6 -2 10 -4 10 -3 0
-8 -4 -11 -10z"/>
<path d="M5365 4377 c8 -13 12 -27 8 -30 -3 -4 -1 -7 5 -7 17 0 10 37 -11 49
-17 11 -17 10 -2 -12z"/>
<path d="M5418 4383 c-16 -19 -14 -43 4 -43 6 0 5 6 -2 15 -11 13 -9 15 10 13
13 -2 24 3 26 10 1 7 0 8 -3 2 -8 -16 -26 -12 -19 5 7 20 3 19 -16 -2z"/>
<path d="M5457 4356 c-10 -8 -14 -16 -10 -19 5 -3 14 3 21 14 14 22 13 23 -11
5z"/>
<path d="M5495 4320 c3 -5 8 -10 11 -10 2 0 4 5 4 10 0 6 -5 10 -11 10 -5 0
-7 -4 -4 -10z"/>
<path d="M5315 4180 c3 -5 8 -10 11 -10 2 0 4 5 4 10 0 6 -5 10 -11 10 -5 0
-7 -4 -4 -10z"/>
<path d="M5672 4591 c2 -13 -3 -26 -10 -28 -8 -3 -10 2 -6 14 4 14 4 15 -4 4
-5 -7 -21 -13 -36 -13 -31 0 -54 -23 -31 -32 8 -3 21 -3 29 0 9 3 14 0 12 -8
-3 -25 -16 -37 -39 -34 -30 3 -49 15 -42 27 4 5 3 9 -1 9 -9 0 -33 -32 -34
-44 0 -6 6 -2 13 8 12 17 14 16 14 -13 0 -24 -3 -28 -14 -20 -9 8 -13 8 -13 0
0 -6 5 -11 11 -11 6 0 2 -12 -8 -27 -19 -28 -19 -28 6 -53 l25 -25 -17 27
c-22 36 -21 49 2 21 10 -12 21 -20 24 -16 4 3 -3 13 -14 22 l-20 16 21 28 c12
15 17 27 11 27 -6 0 -11 4 -11 9 0 5 11 9 25 9 14 0 25 -4 25 -9 0 -5 -5 -9
-12 -9 -6 0 -8 -3 -5 -6 4 -4 13 -1 22 6 10 8 15 9 15 1 0 -6 5 -11 11 -11 8
0 8 4 0 14 -9 11 -6 14 14 14 26 0 34 -13 13 -21 -10 -4 -10 -6 -1 -6 16 -1
24 14 17 33 -5 13 -9 14 -20 5 -12 -9 -14 -8 -11 7 4 31 18 45 35 40 32 -10
40 7 20 39 -18 28 -19 28 -16 6z m18 -31 c0 -5 -5 -10 -11 -10 -5 0 -7 5 -4
10 3 6 8 10 11 10 2 0 4 -4 4 -10z m-80 -10 c0 -5 -4 -10 -10 -10 -5 0 -10 5
-10 10 0 6 5 10 10 10 6 0 10 -4 10 -10z m40 6 c0 -11 -19 -15 -25 -6 -3 5 1
10 9 10 9 0 16 -2 16 -4z"/>
<path d="M5506 4575 c-9 -14 -13 -26 -9 -26 5 -1 21 -2 36 -3 26 -2 27 -1 10
12 -10 7 -17 20 -15 28 4 21 -4 17 -22 -11z m19 -15 c3 -5 1 -10 -4 -10 -6 0
-11 5 -11 10 0 6 2 10 4 10 3 0 8 -4 11 -10z"/>
<path d="M4870 4570 c0 -5 5 -10 10 -10 6 0 10 5 10 10 0 6 -4 10 -10 10 -5 0
-10 -4 -10 -10z"/>
<path d="M4840 4539 c-6 -11 -9 -25 -6 -32 2 -7 5 -4 5 6 1 10 6 15 11 12 6
-4 8 -11 5 -16 -4 -5 -1 -9 4 -9 14 0 14 17 0 25 -6 4 -8 13 -5 21 8 21 -2 17
-14 -7z"/>
<path d="M5140 4520 c0 -5 5 -10 10 -10 6 0 10 5 10 10 0 6 -4 10 -10 10 -5 0
-10 -4 -10 -10z"/>
<path d="M5560 4520 c0 -5 5 -10 10 -10 6 0 10 5 10 10 0 6 -4 10 -10 10 -5 0
-10 -4 -10 -10z"/>
<path d="M5335 4510 c-3 -5 -1 -10 4 -10 6 0 11 5 11 10 0 6 -2 10 -4 10 -3 0
-8 -4 -11 -10z"/>
<path d="M4886 4495 c4 -10 0 -13 -16 -10 -18 4 -20 2 -9 -11 10 -13 14 -12
30 2 23 20 23 20 5 27 -10 4 -13 1 -10 -8z"/>
<path d="M4919 4445 c-4 -14 3 -27 23 -43 15 -13 28 -20 28 -15 0 4 -9 14 -19
20 -11 7 -21 23 -23 35 -3 21 -4 22 -9 3z"/>
<path d="M5097 4443 c3 -10 10 -23 15 -30 6 -7 3 -23 -7 -42 -9 -18 -11 -31
-5 -31 5 0 10 7 10 16 0 8 4 12 10 9 5 -3 7 0 4 8 -5 14 22 17 43 4 6 -4 14 0
17 9 7 19 -1 34 -17 33 -9 0 -9 -2 1 -6 21 -8 13 -20 -13 -20 -26 0 -33 12
-12 21 6 3 3 4 -8 3 -14 -1 -21 5 -23 21 -2 12 -7 22 -12 22 -5 0 -7 -8 -3
-17z"/>
<path d="M5660 4450 c-9 -6 -10 -10 -3 -10 6 0 15 5 18 10 8 12 4 12 -15 0z"/>
<path d="M5260 4440 c0 -5 5 -10 10 -10 6 0 10 5 10 10 0 6 -4 10 -10 10 -5 0
-10 -4 -10 -10z"/>
<path d="M5440 4440 c0 -5 5 -10 10 -10 6 0 10 5 10 10 0 6 -4 10 -10 10 -5 0
-10 -4 -10 -10z"/>
<path d="M5566 4428 c6 -20 5 -21 -10 -9 -10 9 -16 10 -16 2 0 -11 13 -15 39
-11 9 1 7 -8 -8 -28 -24 -34 -26 -42 -10 -42 5 0 8 4 5 8 -3 5 6 20 18 33 23
25 23 26 4 38 -10 6 -16 16 -13 21 3 6 1 10 -5 10 -7 0 -9 -8 -4 -22z"/>
<path d="M5590 4443 c0 -5 12 -16 25 -26 23 -16 24 -16 18 -1 -4 12 -3 15 5
10 8 -5 10 -2 6 8 -3 9 -10 16 -16 16 -5 0 -6 -4 -3 -10 3 -5 1 -10 -4 -10 -6
0 -11 5 -11 10 0 6 -4 10 -10 10 -5 0 -10 -3 -10 -7z"/>
<path d="M5048 4420 c-2 -6 -13 -12 -25 -13 -12 0 -20 -4 -17 -8 2 -4 -4 -14
-15 -21 -18 -13 -18 -14 5 -31 23 -17 30 -13 25 16 -1 7 15 11 32 8 4 0 7 4 7
10 0 6 -7 9 -15 6 -8 -4 -17 -2 -20 3 -4 6 1 10 9 10 16 0 31 18 23 26 -3 3
-7 0 -9 -6z m-31 -50 c-1 -20 -9 -25 -20 -13 -4 3 -2 12 4 20 15 18 18 17 16
-7z"/>
<path d="M5030 4330 c0 -5 5 -10 11 -10 5 0 7 5 4 10 -3 6 -8 10 -11 10 -2 0
-4 -4 -4 -10z"/>
<path d="M5067 4295 c-12 -8 -14 -15 -8 -20 6 -3 11 -1 11 4 0 6 5 11 11 11 5
0 7 -4 4 -10 -3 -5 -1 -10 4 -10 13 0 14 10 3 27 -5 8 -12 8 -25 -2z"/>
<path d="M5415 4289 c-4 -5 2 -6 11 -2 13 5 15 3 9 -8 -8 -12 -6 -12 8 0 22
18 34 7 14 -13 -8 -8 -17 -12 -21 -9 -3 4 -6 2 -6 -4 0 -6 7 -13 15 -17 8 -3
14 0 12 7 -1 7 3 11 9 10 6 -1 11 8 10 20 -1 16 -8 22 -28 24 -15 1 -30 -2
-33 -8z"/>
<path d="M5426 4213 c-6 -14 -5 -15 5 -6 7 7 10 15 7 18 -3 3 -9 -2 -12 -12z"/>
<path d="M5345 4139 c-11 -16 -1 -19 13 -3 7 8 8 14 3 14 -5 0 -13 -5 -16 -11z"/>
</g>
</svg>
